%
M48
M72
T01C0.0157
T02C0.0236
T03C0.0394
T04C0.1260
%
T01
X9531Y18389
X8665Y18822
X9609Y20082
X9609Y21814
T02
X11184Y28507
X15515Y28507
X15515Y22602
X15515Y17877
X15515Y11972
X15515Y6066
X11184Y11972
X5279Y11972
X5279Y17877
X5279Y22602
X5279Y28507
X5279Y34413
X15515Y34413
X5279Y6066
T03
X1342Y17739
X1342Y18739
X1342Y19739
X1342Y20739
X1342Y21739
X1342Y22739
X19452Y22739
X19452Y21739
X19452Y20739
X19452Y19739
X19452Y18739
X19452Y17739
T04
X1735Y1735
X19058Y1735
X19058Y38743
X1735Y38743
M30
