G75*
G70*
%OFA0B0*%
%FSLAX24Y24*%
%IPPOS*%
%LPD*%
%AMOC8*
5,1,8,0,0,1.08239X$1,22.5*
%
%ADD10C,0.0000*%
%ADD11C,0.0660*%
%ADD12R,0.0433X0.0394*%
%ADD13R,0.0157X0.0591*%
%ADD14R,0.0394X0.0433*%
%ADD15C,0.0100*%
%ADD16C,0.0120*%
%ADD17C,0.0317*%
%ADD18C,0.0396*%
D10*
X000554Y000554D02*
X000554Y039924D01*
X020239Y039924D01*
X020239Y000554D01*
X000554Y000554D01*
X001105Y001735D02*
X001107Y001785D01*
X001113Y001835D01*
X001123Y001884D01*
X001137Y001932D01*
X001154Y001979D01*
X001175Y002024D01*
X001200Y002068D01*
X001228Y002109D01*
X001260Y002148D01*
X001294Y002185D01*
X001331Y002219D01*
X001371Y002249D01*
X001413Y002276D01*
X001457Y002300D01*
X001503Y002321D01*
X001550Y002337D01*
X001598Y002350D01*
X001648Y002359D01*
X001697Y002364D01*
X001748Y002365D01*
X001798Y002362D01*
X001847Y002355D01*
X001896Y002344D01*
X001944Y002329D01*
X001990Y002311D01*
X002035Y002289D01*
X002078Y002263D01*
X002119Y002234D01*
X002158Y002202D01*
X002194Y002167D01*
X002226Y002129D01*
X002256Y002089D01*
X002283Y002046D01*
X002306Y002002D01*
X002325Y001956D01*
X002341Y001908D01*
X002353Y001859D01*
X002361Y001810D01*
X002365Y001760D01*
X002365Y001710D01*
X002361Y001660D01*
X002353Y001611D01*
X002341Y001562D01*
X002325Y001514D01*
X002306Y001468D01*
X002283Y001424D01*
X002256Y001381D01*
X002226Y001341D01*
X002194Y001303D01*
X002158Y001268D01*
X002119Y001236D01*
X002078Y001207D01*
X002035Y001181D01*
X001990Y001159D01*
X001944Y001141D01*
X001896Y001126D01*
X001847Y001115D01*
X001798Y001108D01*
X001748Y001105D01*
X001697Y001106D01*
X001648Y001111D01*
X001598Y001120D01*
X001550Y001133D01*
X001503Y001149D01*
X001457Y001170D01*
X001413Y001194D01*
X001371Y001221D01*
X001331Y001251D01*
X001294Y001285D01*
X001260Y001322D01*
X001228Y001361D01*
X001200Y001402D01*
X001175Y001446D01*
X001154Y001491D01*
X001137Y001538D01*
X001123Y001586D01*
X001113Y001635D01*
X001107Y001685D01*
X001105Y001735D01*
X018428Y001735D02*
X018430Y001785D01*
X018436Y001835D01*
X018446Y001884D01*
X018460Y001932D01*
X018477Y001979D01*
X018498Y002024D01*
X018523Y002068D01*
X018551Y002109D01*
X018583Y002148D01*
X018617Y002185D01*
X018654Y002219D01*
X018694Y002249D01*
X018736Y002276D01*
X018780Y002300D01*
X018826Y002321D01*
X018873Y002337D01*
X018921Y002350D01*
X018971Y002359D01*
X019020Y002364D01*
X019071Y002365D01*
X019121Y002362D01*
X019170Y002355D01*
X019219Y002344D01*
X019267Y002329D01*
X019313Y002311D01*
X019358Y002289D01*
X019401Y002263D01*
X019442Y002234D01*
X019481Y002202D01*
X019517Y002167D01*
X019549Y002129D01*
X019579Y002089D01*
X019606Y002046D01*
X019629Y002002D01*
X019648Y001956D01*
X019664Y001908D01*
X019676Y001859D01*
X019684Y001810D01*
X019688Y001760D01*
X019688Y001710D01*
X019684Y001660D01*
X019676Y001611D01*
X019664Y001562D01*
X019648Y001514D01*
X019629Y001468D01*
X019606Y001424D01*
X019579Y001381D01*
X019549Y001341D01*
X019517Y001303D01*
X019481Y001268D01*
X019442Y001236D01*
X019401Y001207D01*
X019358Y001181D01*
X019313Y001159D01*
X019267Y001141D01*
X019219Y001126D01*
X019170Y001115D01*
X019121Y001108D01*
X019071Y001105D01*
X019020Y001106D01*
X018971Y001111D01*
X018921Y001120D01*
X018873Y001133D01*
X018826Y001149D01*
X018780Y001170D01*
X018736Y001194D01*
X018694Y001221D01*
X018654Y001251D01*
X018617Y001285D01*
X018583Y001322D01*
X018551Y001361D01*
X018523Y001402D01*
X018498Y001446D01*
X018477Y001491D01*
X018460Y001538D01*
X018446Y001586D01*
X018436Y001635D01*
X018430Y001685D01*
X018428Y001735D01*
X018428Y038743D02*
X018430Y038793D01*
X018436Y038843D01*
X018446Y038892D01*
X018460Y038940D01*
X018477Y038987D01*
X018498Y039032D01*
X018523Y039076D01*
X018551Y039117D01*
X018583Y039156D01*
X018617Y039193D01*
X018654Y039227D01*
X018694Y039257D01*
X018736Y039284D01*
X018780Y039308D01*
X018826Y039329D01*
X018873Y039345D01*
X018921Y039358D01*
X018971Y039367D01*
X019020Y039372D01*
X019071Y039373D01*
X019121Y039370D01*
X019170Y039363D01*
X019219Y039352D01*
X019267Y039337D01*
X019313Y039319D01*
X019358Y039297D01*
X019401Y039271D01*
X019442Y039242D01*
X019481Y039210D01*
X019517Y039175D01*
X019549Y039137D01*
X019579Y039097D01*
X019606Y039054D01*
X019629Y039010D01*
X019648Y038964D01*
X019664Y038916D01*
X019676Y038867D01*
X019684Y038818D01*
X019688Y038768D01*
X019688Y038718D01*
X019684Y038668D01*
X019676Y038619D01*
X019664Y038570D01*
X019648Y038522D01*
X019629Y038476D01*
X019606Y038432D01*
X019579Y038389D01*
X019549Y038349D01*
X019517Y038311D01*
X019481Y038276D01*
X019442Y038244D01*
X019401Y038215D01*
X019358Y038189D01*
X019313Y038167D01*
X019267Y038149D01*
X019219Y038134D01*
X019170Y038123D01*
X019121Y038116D01*
X019071Y038113D01*
X019020Y038114D01*
X018971Y038119D01*
X018921Y038128D01*
X018873Y038141D01*
X018826Y038157D01*
X018780Y038178D01*
X018736Y038202D01*
X018694Y038229D01*
X018654Y038259D01*
X018617Y038293D01*
X018583Y038330D01*
X018551Y038369D01*
X018523Y038410D01*
X018498Y038454D01*
X018477Y038499D01*
X018460Y038546D01*
X018446Y038594D01*
X018436Y038643D01*
X018430Y038693D01*
X018428Y038743D01*
X001105Y038743D02*
X001107Y038793D01*
X001113Y038843D01*
X001123Y038892D01*
X001137Y038940D01*
X001154Y038987D01*
X001175Y039032D01*
X001200Y039076D01*
X001228Y039117D01*
X001260Y039156D01*
X001294Y039193D01*
X001331Y039227D01*
X001371Y039257D01*
X001413Y039284D01*
X001457Y039308D01*
X001503Y039329D01*
X001550Y039345D01*
X001598Y039358D01*
X001648Y039367D01*
X001697Y039372D01*
X001748Y039373D01*
X001798Y039370D01*
X001847Y039363D01*
X001896Y039352D01*
X001944Y039337D01*
X001990Y039319D01*
X002035Y039297D01*
X002078Y039271D01*
X002119Y039242D01*
X002158Y039210D01*
X002194Y039175D01*
X002226Y039137D01*
X002256Y039097D01*
X002283Y039054D01*
X002306Y039010D01*
X002325Y038964D01*
X002341Y038916D01*
X002353Y038867D01*
X002361Y038818D01*
X002365Y038768D01*
X002365Y038718D01*
X002361Y038668D01*
X002353Y038619D01*
X002341Y038570D01*
X002325Y038522D01*
X002306Y038476D01*
X002283Y038432D01*
X002256Y038389D01*
X002226Y038349D01*
X002194Y038311D01*
X002158Y038276D01*
X002119Y038244D01*
X002078Y038215D01*
X002035Y038189D01*
X001990Y038167D01*
X001944Y038149D01*
X001896Y038134D01*
X001847Y038123D01*
X001798Y038116D01*
X001748Y038113D01*
X001697Y038114D01*
X001648Y038119D01*
X001598Y038128D01*
X001550Y038141D01*
X001503Y038157D01*
X001457Y038178D01*
X001413Y038202D01*
X001371Y038229D01*
X001331Y038259D01*
X001294Y038293D01*
X001260Y038330D01*
X001228Y038369D01*
X001200Y038410D01*
X001175Y038454D01*
X001154Y038499D01*
X001137Y038546D01*
X001123Y038594D01*
X001113Y038643D01*
X001107Y038693D01*
X001105Y038743D01*
D11*
X001342Y022739D03*
X001342Y021739D03*
X001342Y020739D03*
X001342Y019739D03*
X001342Y018739D03*
X001342Y017739D03*
X019452Y017739D03*
X019452Y018739D03*
X019452Y019739D03*
X019452Y020739D03*
X019452Y021739D03*
X019452Y022739D03*
D12*
X008172Y019216D03*
X007503Y019216D03*
D13*
X009011Y019216D03*
X009263Y019216D03*
X009515Y019216D03*
X009767Y019216D03*
X010019Y019216D03*
X010271Y019216D03*
X010523Y019216D03*
X010775Y019216D03*
X011027Y019216D03*
X011279Y019216D03*
X011531Y019216D03*
X011783Y019216D03*
X011783Y021263D03*
X011531Y021263D03*
X011279Y021263D03*
X011027Y021263D03*
X010775Y021263D03*
X010523Y021263D03*
X010271Y021263D03*
X010019Y021263D03*
X009767Y021263D03*
X009515Y021263D03*
X009263Y021263D03*
X009011Y021263D03*
D14*
X008172Y018389D03*
X007503Y018389D03*
D15*
X007454Y018391D02*
X001644Y018391D01*
X001602Y018349D02*
X001732Y018479D01*
X001761Y018549D01*
X002125Y018549D01*
X002283Y018549D01*
X003310Y019577D01*
X008814Y019577D01*
X008802Y019565D01*
X008802Y019406D01*
X008743Y019406D01*
X008586Y019406D01*
X008519Y019406D01*
X008519Y019466D01*
X008443Y019543D01*
X007902Y019543D01*
X007849Y019489D01*
X007840Y019505D01*
X007812Y019533D01*
X007778Y019552D01*
X007739Y019563D01*
X007552Y019563D01*
X007552Y019264D01*
X007455Y019264D01*
X007455Y019563D01*
X007267Y019563D01*
X007229Y019552D01*
X007194Y019533D01*
X007167Y019505D01*
X007147Y019470D01*
X007137Y019432D01*
X007137Y019264D01*
X007454Y019264D01*
X007454Y019167D01*
X007137Y019167D01*
X007137Y018999D01*
X007147Y018961D01*
X007167Y018927D01*
X007194Y018899D01*
X007229Y018879D01*
X007267Y018869D01*
X007455Y018869D01*
X007455Y019167D01*
X007552Y019167D01*
X007552Y018869D01*
X007739Y018869D01*
X007778Y018879D01*
X007812Y018899D01*
X007840Y018927D01*
X007849Y018942D01*
X007902Y018889D01*
X008380Y018889D01*
X008376Y018879D01*
X008376Y018765D01*
X008388Y018735D01*
X007922Y018735D01*
X007846Y018659D01*
X007846Y018641D01*
X007840Y018663D01*
X007820Y018698D01*
X007792Y018726D01*
X007758Y018745D01*
X007720Y018755D01*
X007552Y018755D01*
X007552Y018438D01*
X007455Y018438D01*
X007455Y018755D01*
X007287Y018755D01*
X007248Y018745D01*
X007214Y018726D01*
X007186Y018698D01*
X007167Y018663D01*
X007156Y018625D01*
X007156Y018437D01*
X007454Y018437D01*
X007454Y018340D01*
X007156Y018340D01*
X007156Y018153D01*
X007167Y018115D01*
X007186Y018080D01*
X007199Y018067D01*
X005553Y018067D01*
X005465Y018155D01*
X005344Y018205D01*
X005213Y018205D01*
X005093Y018155D01*
X005001Y018063D01*
X004951Y017942D01*
X004951Y017812D01*
X005001Y017691D01*
X005093Y017599D01*
X005213Y017549D01*
X005344Y017549D01*
X005465Y017599D01*
X005553Y017687D01*
X009688Y017687D01*
X009799Y017798D01*
X010081Y018080D01*
X010081Y017042D01*
X005338Y012300D01*
X005213Y012300D01*
X005093Y012250D01*
X005001Y012157D01*
X004951Y012037D01*
X004951Y011906D01*
X005001Y011786D01*
X005093Y011694D01*
X005213Y011644D01*
X005344Y011644D01*
X005465Y011694D01*
X005557Y011786D01*
X005607Y011906D01*
X005607Y012031D01*
X010333Y016757D01*
X010333Y014145D01*
X005200Y009012D01*
X005089Y008901D01*
X005089Y006340D01*
X005001Y006252D01*
X004951Y006131D01*
X004951Y006001D01*
X005001Y005880D01*
X005093Y005788D01*
X005213Y005738D01*
X005344Y005738D01*
X005465Y005788D01*
X005557Y005880D01*
X005607Y006001D01*
X005607Y006131D01*
X005557Y006252D01*
X005469Y006340D01*
X005469Y008743D01*
X010585Y013859D01*
X010585Y012460D01*
X010585Y012302D01*
X010856Y012031D01*
X010856Y011906D01*
X010906Y011786D01*
X010998Y011694D01*
X011119Y011644D01*
X011250Y011644D01*
X011370Y011694D01*
X011462Y011786D01*
X011512Y011906D01*
X011512Y012037D01*
X011462Y012157D01*
X011370Y012250D01*
X011250Y012300D01*
X011125Y012300D01*
X010965Y012460D01*
X010965Y013104D01*
X015325Y008743D01*
X015325Y006340D01*
X015237Y006252D01*
X015187Y006131D01*
X015187Y006001D01*
X015237Y005880D01*
X015329Y005788D01*
X015450Y005738D01*
X015580Y005738D01*
X015701Y005788D01*
X015793Y005880D01*
X015843Y006001D01*
X015843Y006131D01*
X015793Y006252D01*
X015705Y006340D01*
X015705Y008901D01*
X015594Y009012D01*
X011217Y013389D01*
X011217Y016001D01*
X015187Y012031D01*
X015187Y011906D01*
X015237Y011786D01*
X015329Y011694D01*
X015450Y011644D01*
X015580Y011644D01*
X015701Y011694D01*
X015793Y011786D01*
X015843Y011906D01*
X015843Y012037D01*
X015793Y012157D01*
X015701Y012250D01*
X015580Y012300D01*
X015456Y012300D01*
X011469Y016287D01*
X011469Y018111D01*
X011782Y017798D01*
X011893Y017687D01*
X015241Y017687D01*
X015329Y017599D01*
X015450Y017549D01*
X015580Y017549D01*
X015701Y017599D01*
X015793Y017691D01*
X015843Y017812D01*
X015843Y017942D01*
X015793Y018063D01*
X015701Y018155D01*
X015580Y018205D01*
X015450Y018205D01*
X015329Y018155D01*
X015241Y018067D01*
X012050Y018067D01*
X011721Y018397D01*
X011721Y018790D01*
X011915Y018790D01*
X011991Y018867D01*
X011991Y019565D01*
X011979Y019577D01*
X017444Y019577D01*
X018472Y018549D01*
X018629Y018549D01*
X019033Y018549D01*
X019062Y018479D01*
X019191Y018349D01*
X019360Y018279D01*
X019543Y018279D01*
X019713Y018349D01*
X019842Y018479D01*
X019912Y018648D01*
X019912Y018831D01*
X019842Y019000D01*
X019713Y019129D01*
X019543Y019199D01*
X019360Y019199D01*
X019191Y019129D01*
X019062Y019000D01*
X019033Y018929D01*
X018629Y018929D01*
X018009Y019549D01*
X018062Y019549D01*
X019033Y019549D01*
X019062Y019479D01*
X019191Y019349D01*
X019360Y019279D01*
X019543Y019279D01*
X019713Y019349D01*
X019842Y019479D01*
X019912Y019648D01*
X019912Y019831D01*
X019842Y020000D01*
X019713Y020129D01*
X019543Y020199D01*
X019360Y020199D01*
X019191Y020129D01*
X019062Y020000D01*
X019033Y019929D01*
X018062Y019929D01*
X017831Y020161D01*
X017785Y020207D01*
X017956Y020207D01*
X018113Y020207D01*
X018456Y020549D01*
X019033Y020549D01*
X019062Y020479D01*
X019191Y020349D01*
X019360Y020279D01*
X019543Y020279D01*
X019713Y020349D01*
X019842Y020479D01*
X019912Y020648D01*
X019912Y020831D01*
X019842Y021000D01*
X019713Y021129D01*
X019543Y021199D01*
X019360Y021199D01*
X019191Y021129D01*
X019062Y021000D01*
X019033Y020929D01*
X018456Y020929D01*
X018298Y020929D01*
X017956Y020587D01*
X009705Y020587D01*
X009705Y020838D01*
X009886Y020838D01*
X010138Y020838D01*
X010390Y020838D01*
X010642Y020838D01*
X010894Y020838D01*
X011146Y020838D01*
X011411Y020838D01*
X011650Y020838D01*
X011915Y020838D01*
X011991Y020914D01*
X011991Y021612D01*
X011915Y021688D01*
X011721Y021688D01*
X011721Y022082D01*
X012050Y022412D01*
X015241Y022412D01*
X015329Y022323D01*
X015450Y022273D01*
X015580Y022273D01*
X015701Y022323D01*
X015793Y022416D01*
X015843Y022536D01*
X015843Y022667D01*
X015793Y022787D01*
X015701Y022880D01*
X015580Y022930D01*
X015450Y022930D01*
X015329Y022880D01*
X015241Y022792D01*
X011893Y022792D01*
X011782Y022680D01*
X011469Y022367D01*
X011469Y024192D01*
X015456Y028179D01*
X015580Y028179D01*
X015701Y028229D01*
X015793Y028321D01*
X015843Y028442D01*
X020089Y028442D01*
X020089Y028344D02*
X015802Y028344D01*
X015843Y028442D02*
X015843Y028572D01*
X015793Y028693D01*
X015701Y028785D01*
X015580Y028835D01*
X015450Y028835D01*
X015329Y028785D01*
X015237Y028693D01*
X015187Y028572D01*
X015187Y028448D01*
X011217Y024478D01*
X011217Y027090D01*
X015594Y031467D01*
X015705Y031578D01*
X015705Y034139D01*
X015793Y034227D01*
X015843Y034347D01*
X015843Y034478D01*
X015793Y034598D01*
X015701Y034691D01*
X015580Y034741D01*
X015450Y034741D01*
X015329Y034691D01*
X015237Y034598D01*
X015187Y034478D01*
X015187Y034347D01*
X015237Y034227D01*
X015325Y034139D01*
X015325Y031735D01*
X010965Y027375D01*
X010965Y028019D01*
X011125Y028179D01*
X011250Y028179D01*
X011370Y028229D01*
X011462Y028321D01*
X011512Y028442D01*
X012032Y028442D01*
X012130Y028541D02*
X011512Y028541D01*
X011512Y028572D02*
X011462Y028693D01*
X011370Y028785D01*
X011250Y028835D01*
X011119Y028835D01*
X010998Y028785D01*
X010906Y028693D01*
X010856Y028572D01*
X010856Y028448D01*
X010585Y028176D01*
X010585Y028019D01*
X010585Y026619D01*
X005469Y031735D01*
X005469Y034139D01*
X005557Y034227D01*
X005607Y034347D01*
X005607Y034478D01*
X005557Y034598D01*
X005465Y034691D01*
X005344Y034741D01*
X005213Y034741D01*
X005093Y034691D01*
X005001Y034598D01*
X004951Y034478D01*
X004951Y034347D01*
X005001Y034227D01*
X005089Y034139D01*
X005089Y031578D01*
X005200Y031467D01*
X010333Y026334D01*
X010333Y023722D01*
X005607Y028448D01*
X005607Y028572D01*
X005557Y028693D01*
X005465Y028785D01*
X005344Y028835D01*
X005213Y028835D01*
X005093Y028785D01*
X005001Y028693D01*
X004951Y028572D01*
X004951Y028442D01*
X000704Y028442D01*
X000704Y028344D02*
X004991Y028344D01*
X005001Y028321D02*
X005093Y028229D01*
X005213Y028179D01*
X005338Y028179D01*
X010081Y023436D01*
X010081Y022399D01*
X009799Y022680D01*
X009688Y022792D01*
X005553Y022792D01*
X005465Y022880D01*
X005344Y022930D01*
X005213Y022930D01*
X005093Y022880D01*
X005001Y022787D01*
X004951Y022667D01*
X004951Y022536D01*
X005001Y022416D01*
X005093Y022323D01*
X005213Y022273D01*
X005344Y022273D01*
X005465Y022323D01*
X005553Y022412D01*
X009531Y022412D01*
X009829Y022113D01*
X009829Y022003D01*
X009773Y022059D01*
X009667Y022103D01*
X009552Y022103D01*
X009446Y022059D01*
X009365Y021978D01*
X009321Y021872D01*
X009321Y021757D01*
X009349Y021688D01*
X009165Y021688D01*
X009148Y021698D01*
X009109Y021708D01*
X009011Y021708D01*
X008913Y021708D01*
X008874Y021698D01*
X008840Y021678D01*
X008812Y021650D01*
X008793Y021616D01*
X008782Y021578D01*
X008782Y021263D01*
X009011Y021263D01*
X009011Y021263D01*
X008782Y021263D01*
X008782Y020948D01*
X008793Y020910D01*
X008812Y020876D01*
X008840Y020848D01*
X008874Y020828D01*
X008893Y020823D01*
X002995Y020823D01*
X001889Y021929D01*
X001761Y021929D01*
X001732Y022000D01*
X001602Y022129D01*
X001433Y022199D01*
X001250Y022199D01*
X001081Y022129D01*
X000952Y022000D01*
X000882Y021831D01*
X000882Y021648D01*
X000952Y021479D01*
X001081Y021349D01*
X001250Y021279D01*
X001433Y021279D01*
X001602Y021349D01*
X001732Y021479D01*
X001752Y021529D01*
X002352Y020929D01*
X002338Y020929D01*
X001761Y020929D01*
X001732Y021000D01*
X001602Y021129D01*
X001433Y021199D01*
X001250Y021199D01*
X001081Y021129D01*
X000952Y021000D01*
X000882Y020831D01*
X000882Y020648D01*
X000952Y020479D01*
X001081Y020349D01*
X001250Y020279D01*
X001433Y020279D01*
X001602Y020349D01*
X001732Y020479D01*
X001761Y020549D01*
X002338Y020549D01*
X002569Y020318D01*
X002680Y020207D01*
X003009Y020207D01*
X002963Y020161D01*
X002963Y020161D01*
X002731Y019929D01*
X001761Y019929D01*
X001732Y020000D01*
X001602Y020129D01*
X001433Y020199D01*
X001250Y020199D01*
X001081Y020129D01*
X000952Y020000D01*
X000882Y019831D01*
X000882Y019648D01*
X000952Y019479D01*
X001081Y019349D01*
X001250Y019279D01*
X001433Y019279D01*
X001602Y019349D01*
X001732Y019479D01*
X001761Y019549D01*
X002731Y019549D01*
X002745Y019549D01*
X002125Y018929D01*
X001761Y018929D01*
X001732Y019000D01*
X001602Y019129D01*
X001433Y019199D01*
X001250Y019199D01*
X001081Y019129D01*
X000952Y019000D01*
X000882Y018831D01*
X000882Y018648D01*
X000952Y018479D01*
X001081Y018349D01*
X001250Y018279D01*
X001433Y018279D01*
X001602Y018349D01*
X001464Y018292D02*
X007156Y018292D01*
X007156Y018194D02*
X005372Y018194D01*
X005525Y018095D02*
X007178Y018095D01*
X007156Y018489D02*
X001736Y018489D01*
X001593Y018150D02*
X001526Y018184D01*
X001454Y018208D01*
X001390Y018218D01*
X001390Y017788D01*
X001293Y017788D01*
X001293Y017691D01*
X000863Y017691D01*
X000874Y017627D01*
X000897Y017555D01*
X000931Y017488D01*
X000976Y017427D01*
X001029Y017373D01*
X001090Y017329D01*
X001157Y017295D01*
X001229Y017271D01*
X001293Y017261D01*
X001293Y017691D01*
X001390Y017691D01*
X001390Y017261D01*
X001454Y017271D01*
X001526Y017295D01*
X001593Y017329D01*
X001654Y017373D01*
X001708Y017427D01*
X001752Y017488D01*
X001787Y017555D01*
X001810Y017627D01*
X001820Y017691D01*
X001390Y017691D01*
X001390Y017788D01*
X001820Y017788D01*
X001810Y017852D01*
X001787Y017924D01*
X001752Y017991D01*
X001708Y018052D01*
X001654Y018105D01*
X001593Y018150D01*
X001665Y018095D02*
X005033Y018095D01*
X004973Y017996D02*
X001748Y017996D01*
X001795Y017898D02*
X004951Y017898D01*
X004956Y017799D02*
X001818Y017799D01*
X001802Y017602D02*
X005090Y017602D01*
X004997Y017701D02*
X001390Y017701D01*
X001293Y017701D02*
X000704Y017701D01*
X000704Y017799D02*
X000865Y017799D01*
X000863Y017788D02*
X001293Y017788D01*
X001293Y018218D01*
X001229Y018208D01*
X001157Y018184D01*
X001090Y018150D01*
X001029Y018105D01*
X000976Y018052D01*
X000931Y017991D01*
X000897Y017924D01*
X000874Y017852D01*
X000863Y017788D01*
X000889Y017898D02*
X000704Y017898D01*
X000704Y017996D02*
X000935Y017996D01*
X001019Y018095D02*
X000704Y018095D01*
X000704Y018194D02*
X001186Y018194D01*
X001219Y018292D02*
X000704Y018292D01*
X000704Y018391D02*
X001040Y018391D01*
X000947Y018489D02*
X000704Y018489D01*
X000704Y018588D02*
X000907Y018588D01*
X000882Y018686D02*
X000704Y018686D01*
X000704Y018785D02*
X000882Y018785D01*
X000904Y018883D02*
X000704Y018883D01*
X000704Y018982D02*
X000944Y018982D01*
X001032Y019080D02*
X000704Y019080D01*
X000704Y019179D02*
X001201Y019179D01*
X001054Y019376D02*
X000704Y019376D01*
X000704Y019278D02*
X002473Y019278D01*
X002375Y019179D02*
X001482Y019179D01*
X001651Y019080D02*
X002276Y019080D01*
X002178Y018982D02*
X001739Y018982D01*
X001629Y019376D02*
X002572Y019376D01*
X002671Y019475D02*
X001728Y019475D01*
X001745Y019967D02*
X002770Y019967D01*
X002868Y020066D02*
X001666Y020066D01*
X001517Y020164D02*
X002967Y020164D01*
X003306Y019573D02*
X008811Y019573D01*
X008802Y019475D02*
X008511Y019475D01*
X008377Y018883D02*
X007785Y018883D01*
X007827Y018686D02*
X007873Y018686D01*
X007552Y018686D02*
X007455Y018686D01*
X007455Y018588D02*
X007552Y018588D01*
X007552Y018489D02*
X007455Y018489D01*
X007156Y018588D02*
X002321Y018588D01*
X002420Y018686D02*
X007180Y018686D01*
X007221Y018883D02*
X002617Y018883D01*
X002518Y018785D02*
X008376Y018785D01*
X007552Y018883D02*
X007455Y018883D01*
X007455Y018982D02*
X007552Y018982D01*
X007552Y019080D02*
X007455Y019080D01*
X007454Y019179D02*
X002912Y019179D01*
X002814Y019080D02*
X007137Y019080D01*
X007141Y018982D02*
X002715Y018982D01*
X003011Y019278D02*
X007137Y019278D01*
X007137Y019376D02*
X003109Y019376D01*
X003208Y019475D02*
X007149Y019475D01*
X007455Y019475D02*
X007552Y019475D01*
X007552Y019376D02*
X007455Y019376D01*
X007455Y019278D02*
X007552Y019278D01*
X008834Y020854D02*
X002964Y020854D01*
X002865Y020953D02*
X008782Y020953D01*
X008782Y021051D02*
X002767Y021051D01*
X002668Y021150D02*
X008782Y021150D01*
X008782Y021248D02*
X002570Y021248D01*
X002471Y021347D02*
X008782Y021347D01*
X008782Y021446D02*
X002373Y021446D01*
X002274Y021544D02*
X008782Y021544D01*
X008808Y021643D02*
X002176Y021643D01*
X002077Y021741D02*
X009327Y021741D01*
X009321Y021840D02*
X001979Y021840D01*
X001757Y021938D02*
X009348Y021938D01*
X009424Y022037D02*
X001695Y022037D01*
X001588Y022135D02*
X009807Y022135D01*
X009795Y022037D02*
X009829Y022037D01*
X009708Y022234D02*
X000704Y022234D01*
X000704Y022332D02*
X001122Y022332D01*
X001081Y022349D02*
X001250Y022279D01*
X001433Y022279D01*
X001602Y022349D01*
X001732Y022479D01*
X001802Y022648D01*
X001802Y022831D01*
X001732Y023000D01*
X001602Y023129D01*
X001433Y023199D01*
X001250Y023199D01*
X001081Y023129D01*
X000952Y023000D01*
X000882Y022831D01*
X000882Y022648D01*
X000952Y022479D01*
X001081Y022349D01*
X001000Y022431D02*
X000704Y022431D01*
X000704Y022529D02*
X000931Y022529D01*
X000890Y022628D02*
X000704Y022628D01*
X000704Y022727D02*
X000882Y022727D01*
X000882Y022825D02*
X000704Y022825D01*
X000704Y022924D02*
X000920Y022924D01*
X000974Y023022D02*
X000704Y023022D01*
X000704Y023121D02*
X001073Y023121D01*
X000704Y023219D02*
X010081Y023219D01*
X010081Y023121D02*
X001611Y023121D01*
X001709Y023022D02*
X010081Y023022D01*
X010081Y022924D02*
X005358Y022924D01*
X005199Y022924D02*
X001763Y022924D01*
X001802Y022825D02*
X005038Y022825D01*
X004975Y022727D02*
X001802Y022727D01*
X001793Y022628D02*
X004951Y022628D01*
X004953Y022529D02*
X001753Y022529D01*
X001684Y022431D02*
X004994Y022431D01*
X005084Y022332D02*
X001561Y022332D01*
X001096Y022135D02*
X000704Y022135D01*
X000704Y022037D02*
X000989Y022037D01*
X000926Y021938D02*
X000704Y021938D01*
X000704Y021840D02*
X000885Y021840D01*
X000882Y021741D02*
X000704Y021741D01*
X000704Y021643D02*
X000884Y021643D01*
X000925Y021544D02*
X000704Y021544D01*
X000704Y021446D02*
X000985Y021446D01*
X001087Y021347D02*
X000704Y021347D01*
X000704Y021248D02*
X002032Y021248D01*
X001934Y021347D02*
X001596Y021347D01*
X001698Y021446D02*
X001835Y021446D01*
X001553Y021150D02*
X002131Y021150D01*
X002230Y021051D02*
X001680Y021051D01*
X001751Y020953D02*
X002328Y020953D01*
X002427Y020460D02*
X001713Y020460D01*
X001614Y020362D02*
X002526Y020362D01*
X002624Y020263D02*
X000704Y020263D01*
X000704Y020362D02*
X001069Y020362D01*
X000970Y020460D02*
X000704Y020460D01*
X000704Y020559D02*
X000919Y020559D01*
X000882Y020657D02*
X000704Y020657D01*
X000704Y020756D02*
X000882Y020756D01*
X000891Y020854D02*
X000704Y020854D01*
X000704Y020953D02*
X000932Y020953D01*
X001003Y021051D02*
X000704Y021051D01*
X000704Y021150D02*
X001131Y021150D01*
X001166Y020164D02*
X000704Y020164D01*
X000704Y020066D02*
X001018Y020066D01*
X000938Y019967D02*
X000704Y019967D01*
X000704Y019869D02*
X000897Y019869D01*
X000882Y019770D02*
X000704Y019770D01*
X000704Y019672D02*
X000882Y019672D01*
X000913Y019573D02*
X000704Y019573D01*
X000704Y019475D02*
X000956Y019475D01*
X001293Y018194D02*
X001390Y018194D01*
X001390Y018095D02*
X001293Y018095D01*
X001293Y017996D02*
X001390Y017996D01*
X001390Y017898D02*
X001293Y017898D01*
X001293Y017799D02*
X001390Y017799D01*
X001390Y017602D02*
X001293Y017602D01*
X001293Y017504D02*
X001390Y017504D01*
X001390Y017405D02*
X001293Y017405D01*
X001293Y017307D02*
X001390Y017307D01*
X001550Y017307D02*
X010081Y017307D01*
X010081Y017405D02*
X001686Y017405D01*
X001760Y017504D02*
X010081Y017504D01*
X010081Y017602D02*
X005468Y017602D01*
X005185Y018194D02*
X001497Y018194D01*
X001134Y017307D02*
X000704Y017307D01*
X000704Y017405D02*
X000997Y017405D01*
X000923Y017504D02*
X000704Y017504D01*
X000704Y017602D02*
X000882Y017602D01*
X000704Y017208D02*
X010081Y017208D01*
X010081Y017110D02*
X000704Y017110D01*
X000704Y017011D02*
X010049Y017011D01*
X009951Y016913D02*
X000704Y016913D01*
X000704Y016814D02*
X009852Y016814D01*
X009754Y016715D02*
X000704Y016715D01*
X000704Y016617D02*
X009655Y016617D01*
X009557Y016518D02*
X000704Y016518D01*
X000704Y016420D02*
X009458Y016420D01*
X009360Y016321D02*
X000704Y016321D01*
X000704Y016223D02*
X009261Y016223D01*
X009163Y016124D02*
X000704Y016124D01*
X000704Y016026D02*
X009064Y016026D01*
X008965Y015927D02*
X000704Y015927D01*
X000704Y015829D02*
X008867Y015829D01*
X008768Y015730D02*
X000704Y015730D01*
X000704Y015631D02*
X008670Y015631D01*
X008571Y015533D02*
X000704Y015533D01*
X000704Y015434D02*
X008473Y015434D01*
X008374Y015336D02*
X000704Y015336D01*
X000704Y015237D02*
X008276Y015237D01*
X008177Y015139D02*
X000704Y015139D01*
X000704Y015040D02*
X008079Y015040D01*
X007980Y014942D02*
X000704Y014942D01*
X000704Y014843D02*
X007881Y014843D01*
X007783Y014745D02*
X000704Y014745D01*
X000704Y014646D02*
X007684Y014646D01*
X007586Y014547D02*
X000704Y014547D01*
X000704Y014449D02*
X007487Y014449D01*
X007389Y014350D02*
X000704Y014350D01*
X000704Y014252D02*
X007290Y014252D01*
X007192Y014153D02*
X000704Y014153D01*
X000704Y014055D02*
X007093Y014055D01*
X006995Y013956D02*
X000704Y013956D01*
X000704Y013858D02*
X006896Y013858D01*
X006798Y013759D02*
X000704Y013759D01*
X000704Y013661D02*
X006699Y013661D01*
X006600Y013562D02*
X000704Y013562D01*
X000704Y013464D02*
X006502Y013464D01*
X006403Y013365D02*
X000704Y013365D01*
X000704Y013266D02*
X006305Y013266D01*
X006206Y013168D02*
X000704Y013168D01*
X000704Y013069D02*
X006108Y013069D01*
X006009Y012971D02*
X000704Y012971D01*
X000704Y012872D02*
X005911Y012872D01*
X005812Y012774D02*
X000704Y012774D01*
X000704Y012675D02*
X005714Y012675D01*
X005615Y012577D02*
X000704Y012577D01*
X000704Y012478D02*
X005516Y012478D01*
X005418Y012380D02*
X000704Y012380D01*
X000704Y012281D02*
X005168Y012281D01*
X005026Y012182D02*
X000704Y012182D01*
X000704Y012084D02*
X004970Y012084D01*
X004951Y011985D02*
X000704Y011985D01*
X000704Y011887D02*
X004959Y011887D01*
X005000Y011788D02*
X000704Y011788D01*
X000704Y011690D02*
X005102Y011690D01*
X005455Y011690D02*
X007878Y011690D01*
X007976Y011788D02*
X005558Y011788D01*
X005599Y011887D02*
X008075Y011887D01*
X008173Y011985D02*
X005607Y011985D01*
X005660Y012084D02*
X008272Y012084D01*
X008370Y012182D02*
X005758Y012182D01*
X005857Y012281D02*
X008469Y012281D01*
X008568Y012380D02*
X005955Y012380D01*
X006054Y012478D02*
X008666Y012478D01*
X008765Y012577D02*
X006152Y012577D01*
X006251Y012675D02*
X008863Y012675D01*
X008962Y012774D02*
X006349Y012774D01*
X006448Y012872D02*
X009060Y012872D01*
X009159Y012971D02*
X006547Y012971D01*
X006645Y013069D02*
X009257Y013069D01*
X009356Y013168D02*
X006744Y013168D01*
X006842Y013266D02*
X009454Y013266D01*
X009553Y013365D02*
X006941Y013365D01*
X007039Y013464D02*
X009651Y013464D01*
X009750Y013562D02*
X007138Y013562D01*
X007236Y013661D02*
X009849Y013661D01*
X009947Y013759D02*
X007335Y013759D01*
X007433Y013858D02*
X010046Y013858D01*
X010144Y013956D02*
X007532Y013956D01*
X007631Y014055D02*
X010243Y014055D01*
X010333Y014153D02*
X007729Y014153D01*
X007828Y014252D02*
X010333Y014252D01*
X010333Y014350D02*
X007926Y014350D01*
X008025Y014449D02*
X010333Y014449D01*
X010333Y014547D02*
X008123Y014547D01*
X008222Y014646D02*
X010333Y014646D01*
X010333Y014745D02*
X008320Y014745D01*
X008419Y014843D02*
X010333Y014843D01*
X010333Y014942D02*
X008517Y014942D01*
X008616Y015040D02*
X010333Y015040D01*
X010333Y015139D02*
X008714Y015139D01*
X008813Y015237D02*
X010333Y015237D01*
X010333Y015336D02*
X008912Y015336D01*
X009010Y015434D02*
X010333Y015434D01*
X010333Y015533D02*
X009109Y015533D01*
X009207Y015631D02*
X010333Y015631D01*
X010333Y015730D02*
X009306Y015730D01*
X009404Y015829D02*
X010333Y015829D01*
X010333Y015927D02*
X009503Y015927D01*
X009601Y016026D02*
X010333Y016026D01*
X010333Y016124D02*
X009700Y016124D01*
X009798Y016223D02*
X010333Y016223D01*
X010333Y016321D02*
X009897Y016321D01*
X009996Y016420D02*
X010333Y016420D01*
X010333Y016518D02*
X010094Y016518D01*
X010193Y016617D02*
X010333Y016617D01*
X010333Y016715D02*
X010291Y016715D01*
X010081Y017701D02*
X009702Y017701D01*
X009800Y017799D02*
X010081Y017799D01*
X010081Y017898D02*
X009899Y017898D01*
X009997Y017996D02*
X010081Y017996D01*
X011217Y015927D02*
X011291Y015927D01*
X011217Y015829D02*
X011389Y015829D01*
X011488Y015730D02*
X011217Y015730D01*
X011217Y015631D02*
X011586Y015631D01*
X011685Y015533D02*
X011217Y015533D01*
X011217Y015434D02*
X011784Y015434D01*
X011882Y015336D02*
X011217Y015336D01*
X011217Y015237D02*
X011981Y015237D01*
X012079Y015139D02*
X011217Y015139D01*
X011217Y015040D02*
X012178Y015040D01*
X012276Y014942D02*
X011217Y014942D01*
X011217Y014843D02*
X012375Y014843D01*
X012473Y014745D02*
X011217Y014745D01*
X011217Y014646D02*
X012572Y014646D01*
X012670Y014547D02*
X011217Y014547D01*
X011217Y014449D02*
X012769Y014449D01*
X012868Y014350D02*
X011217Y014350D01*
X011217Y014252D02*
X012966Y014252D01*
X013065Y014153D02*
X011217Y014153D01*
X011217Y014055D02*
X013163Y014055D01*
X013262Y013956D02*
X011217Y013956D01*
X011217Y013858D02*
X013360Y013858D01*
X013459Y013759D02*
X011217Y013759D01*
X011217Y013661D02*
X013557Y013661D01*
X013656Y013562D02*
X011217Y013562D01*
X011217Y013464D02*
X013754Y013464D01*
X013853Y013365D02*
X011241Y013365D01*
X011339Y013266D02*
X013951Y013266D01*
X014050Y013168D02*
X011438Y013168D01*
X011536Y013069D02*
X014149Y013069D01*
X014247Y012971D02*
X011635Y012971D01*
X011733Y012872D02*
X014346Y012872D01*
X014444Y012774D02*
X011832Y012774D01*
X011931Y012675D02*
X014543Y012675D01*
X014641Y012577D02*
X012029Y012577D01*
X012128Y012478D02*
X014740Y012478D01*
X014838Y012380D02*
X012226Y012380D01*
X012325Y012281D02*
X014937Y012281D01*
X015035Y012182D02*
X012423Y012182D01*
X012522Y012084D02*
X015134Y012084D01*
X015187Y011985D02*
X012620Y011985D01*
X012719Y011887D02*
X015195Y011887D01*
X015236Y011788D02*
X012817Y011788D01*
X012916Y011690D02*
X015338Y011690D01*
X015692Y011690D02*
X020089Y011690D01*
X020089Y011788D02*
X015794Y011788D01*
X015835Y011887D02*
X020089Y011887D01*
X020089Y011985D02*
X015843Y011985D01*
X015824Y012084D02*
X020089Y012084D01*
X020089Y012182D02*
X015768Y012182D01*
X015625Y012281D02*
X020089Y012281D01*
X020089Y012380D02*
X015376Y012380D01*
X015277Y012478D02*
X020089Y012478D01*
X020089Y012577D02*
X015179Y012577D01*
X015080Y012675D02*
X020089Y012675D01*
X020089Y012774D02*
X014982Y012774D01*
X014883Y012872D02*
X020089Y012872D01*
X020089Y012971D02*
X014784Y012971D01*
X014686Y013069D02*
X020089Y013069D01*
X020089Y013168D02*
X014587Y013168D01*
X014489Y013266D02*
X020089Y013266D01*
X020089Y013365D02*
X014390Y013365D01*
X014292Y013464D02*
X020089Y013464D01*
X020089Y013562D02*
X014193Y013562D01*
X014095Y013661D02*
X020089Y013661D01*
X020089Y013759D02*
X013996Y013759D01*
X013898Y013858D02*
X020089Y013858D01*
X020089Y013956D02*
X013799Y013956D01*
X013701Y014055D02*
X020089Y014055D01*
X020089Y014153D02*
X013602Y014153D01*
X013503Y014252D02*
X020089Y014252D01*
X020089Y014350D02*
X013405Y014350D01*
X013306Y014449D02*
X020089Y014449D01*
X020089Y014547D02*
X013208Y014547D01*
X013109Y014646D02*
X020089Y014646D01*
X020089Y014745D02*
X013011Y014745D01*
X012912Y014843D02*
X020089Y014843D01*
X020089Y014942D02*
X012814Y014942D01*
X012715Y015040D02*
X020089Y015040D01*
X020089Y015139D02*
X012617Y015139D01*
X012518Y015237D02*
X020089Y015237D01*
X020089Y015336D02*
X012419Y015336D01*
X012321Y015434D02*
X020089Y015434D01*
X020089Y015533D02*
X012222Y015533D01*
X012124Y015631D02*
X020089Y015631D01*
X020089Y015730D02*
X012025Y015730D01*
X011927Y015829D02*
X020089Y015829D01*
X020089Y015927D02*
X011828Y015927D01*
X011730Y016026D02*
X020089Y016026D01*
X020089Y016124D02*
X011631Y016124D01*
X011533Y016223D02*
X020089Y016223D01*
X020089Y016321D02*
X011469Y016321D01*
X011469Y016420D02*
X020089Y016420D01*
X020089Y016518D02*
X011469Y016518D01*
X011469Y016617D02*
X020089Y016617D01*
X020089Y016715D02*
X011469Y016715D01*
X011469Y016814D02*
X020089Y016814D01*
X020089Y016913D02*
X011469Y016913D01*
X011469Y017011D02*
X020089Y017011D01*
X020089Y017110D02*
X011469Y017110D01*
X011469Y017208D02*
X020089Y017208D01*
X020089Y017307D02*
X019660Y017307D01*
X019636Y017295D02*
X019704Y017329D01*
X019765Y017373D01*
X019818Y017427D01*
X019862Y017488D01*
X019897Y017555D01*
X019920Y017627D01*
X019930Y017691D01*
X019501Y017691D01*
X019501Y017788D01*
X019930Y017788D01*
X019920Y017852D01*
X019897Y017924D01*
X019862Y017991D01*
X019818Y018052D01*
X019765Y018105D01*
X019704Y018150D01*
X019636Y018184D01*
X019564Y018208D01*
X019500Y018218D01*
X019500Y017788D01*
X019403Y017788D01*
X019403Y017691D01*
X018974Y017691D01*
X018984Y017627D01*
X019007Y017555D01*
X019041Y017488D01*
X019086Y017427D01*
X019139Y017373D01*
X019200Y017329D01*
X019268Y017295D01*
X019340Y017271D01*
X019403Y017261D01*
X019403Y017691D01*
X019500Y017691D01*
X019500Y017261D01*
X019564Y017271D01*
X019636Y017295D01*
X019500Y017307D02*
X019403Y017307D01*
X019403Y017405D02*
X019500Y017405D01*
X019500Y017504D02*
X019403Y017504D01*
X019403Y017602D02*
X019500Y017602D01*
X019501Y017701D02*
X020089Y017701D01*
X020089Y017799D02*
X019928Y017799D01*
X019905Y017898D02*
X020089Y017898D01*
X020089Y017996D02*
X019858Y017996D01*
X019775Y018095D02*
X020089Y018095D01*
X020089Y018194D02*
X019607Y018194D01*
X019574Y018292D02*
X020089Y018292D01*
X020089Y018391D02*
X019754Y018391D01*
X019846Y018489D02*
X020089Y018489D01*
X020089Y018588D02*
X019887Y018588D01*
X019912Y018686D02*
X020089Y018686D01*
X020089Y018785D02*
X019912Y018785D01*
X019890Y018883D02*
X020089Y018883D01*
X020089Y018982D02*
X019849Y018982D01*
X019761Y019080D02*
X020089Y019080D01*
X020089Y019179D02*
X019593Y019179D01*
X019739Y019376D02*
X020089Y019376D01*
X020089Y019278D02*
X018281Y019278D01*
X018182Y019376D02*
X019165Y019376D01*
X019066Y019475D02*
X018084Y019475D01*
X017842Y019179D02*
X011991Y019179D01*
X011991Y019278D02*
X017743Y019278D01*
X017645Y019376D02*
X011991Y019376D01*
X011991Y019475D02*
X017546Y019475D01*
X017448Y019573D02*
X011983Y019573D01*
X011991Y019080D02*
X017941Y019080D01*
X018039Y018982D02*
X011991Y018982D01*
X011991Y018883D02*
X018138Y018883D01*
X018236Y018785D02*
X011721Y018785D01*
X011721Y018686D02*
X018335Y018686D01*
X018433Y018588D02*
X011721Y018588D01*
X011721Y018489D02*
X019058Y018489D01*
X019150Y018391D02*
X011727Y018391D01*
X011825Y018292D02*
X019330Y018292D01*
X019340Y018208D02*
X019268Y018184D01*
X019200Y018150D01*
X019139Y018105D01*
X019086Y018052D01*
X019041Y017991D01*
X019007Y017924D01*
X018984Y017852D01*
X018974Y017788D01*
X019403Y017788D01*
X019403Y018218D01*
X019340Y018208D01*
X019297Y018194D02*
X015608Y018194D01*
X015761Y018095D02*
X019129Y018095D01*
X019046Y017996D02*
X015821Y017996D01*
X015843Y017898D02*
X018999Y017898D01*
X018976Y017799D02*
X015838Y017799D01*
X015797Y017701D02*
X019403Y017701D01*
X019403Y017799D02*
X019500Y017799D01*
X019500Y017898D02*
X019403Y017898D01*
X019403Y017996D02*
X019500Y017996D01*
X019500Y018095D02*
X019403Y018095D01*
X019403Y018194D02*
X019500Y018194D01*
X019912Y017602D02*
X020089Y017602D01*
X020089Y017504D02*
X019871Y017504D01*
X019797Y017405D02*
X020089Y017405D01*
X019244Y017307D02*
X011469Y017307D01*
X011469Y017405D02*
X019107Y017405D01*
X019033Y017504D02*
X011469Y017504D01*
X011469Y017602D02*
X015326Y017602D01*
X015269Y018095D02*
X012022Y018095D01*
X011924Y018194D02*
X015422Y018194D01*
X015704Y017602D02*
X018992Y017602D01*
X019055Y018982D02*
X018576Y018982D01*
X018478Y019080D02*
X019143Y019080D01*
X019311Y019179D02*
X018379Y019179D01*
X018024Y019967D02*
X019049Y019967D01*
X019128Y020066D02*
X017926Y020066D01*
X017827Y020164D02*
X019276Y020164D01*
X019179Y020362D02*
X018268Y020362D01*
X018367Y020460D02*
X019081Y020460D01*
X019043Y020953D02*
X011991Y020953D01*
X011991Y021051D02*
X019113Y021051D01*
X019241Y021150D02*
X011991Y021150D01*
X011991Y021248D02*
X020089Y021248D01*
X020089Y021150D02*
X019663Y021150D01*
X019790Y021051D02*
X020089Y021051D01*
X020089Y020953D02*
X019861Y020953D01*
X019902Y020854D02*
X020089Y020854D01*
X020089Y020756D02*
X019912Y020756D01*
X019912Y020657D02*
X020089Y020657D01*
X020089Y020559D02*
X019875Y020559D01*
X019823Y020460D02*
X020089Y020460D01*
X020089Y020362D02*
X019725Y020362D01*
X019628Y020164D02*
X020089Y020164D01*
X020089Y020066D02*
X019776Y020066D01*
X019855Y019967D02*
X020089Y019967D01*
X020089Y019869D02*
X019896Y019869D01*
X019912Y019770D02*
X020089Y019770D01*
X020089Y019672D02*
X019912Y019672D01*
X019881Y019573D02*
X020089Y019573D01*
X020089Y019475D02*
X019838Y019475D01*
X020089Y020263D02*
X018169Y020263D01*
X018026Y020657D02*
X009705Y020657D01*
X009705Y020756D02*
X018125Y020756D01*
X018223Y020854D02*
X011932Y020854D01*
X011991Y021347D02*
X019197Y021347D01*
X019191Y021349D02*
X019360Y021279D01*
X019543Y021279D01*
X019713Y021349D01*
X019842Y021479D01*
X019912Y021648D01*
X019912Y021831D01*
X019842Y022000D01*
X019713Y022129D01*
X019543Y022199D01*
X019360Y022199D01*
X019191Y022129D01*
X019062Y022000D01*
X018992Y021831D01*
X018992Y021648D01*
X019062Y021479D01*
X019191Y021349D01*
X019095Y021446D02*
X011991Y021446D01*
X011991Y021544D02*
X019035Y021544D01*
X018994Y021643D02*
X011961Y021643D01*
X011721Y021741D02*
X018992Y021741D01*
X018996Y021840D02*
X011721Y021840D01*
X011721Y021938D02*
X019036Y021938D01*
X019099Y022037D02*
X011721Y022037D01*
X011774Y022135D02*
X019206Y022135D01*
X019232Y022332D02*
X015710Y022332D01*
X015799Y022431D02*
X019110Y022431D01*
X019062Y022479D02*
X019191Y022349D01*
X019360Y022279D01*
X019543Y022279D01*
X019713Y022349D01*
X019842Y022479D01*
X019912Y022648D01*
X019912Y022831D01*
X019842Y023000D01*
X019713Y023129D01*
X019543Y023199D01*
X019360Y023199D01*
X019191Y023129D01*
X019062Y023000D01*
X018992Y022831D01*
X018992Y022648D01*
X019062Y022479D01*
X019041Y022529D02*
X015840Y022529D01*
X015843Y022628D02*
X019000Y022628D01*
X018992Y022727D02*
X015818Y022727D01*
X015755Y022825D02*
X018992Y022825D01*
X019030Y022924D02*
X015595Y022924D01*
X015435Y022924D02*
X011469Y022924D01*
X011469Y023022D02*
X019084Y023022D01*
X019183Y023121D02*
X011469Y023121D01*
X011469Y023219D02*
X020089Y023219D01*
X020089Y023121D02*
X019721Y023121D01*
X019820Y023022D02*
X020089Y023022D01*
X020089Y022924D02*
X019874Y022924D01*
X019912Y022825D02*
X020089Y022825D01*
X020089Y022727D02*
X019912Y022727D01*
X019904Y022628D02*
X020089Y022628D01*
X020089Y022529D02*
X019863Y022529D01*
X019794Y022431D02*
X020089Y022431D01*
X020089Y022332D02*
X019671Y022332D01*
X019698Y022135D02*
X020089Y022135D01*
X020089Y022037D02*
X019805Y022037D01*
X019867Y021938D02*
X020089Y021938D01*
X020089Y021840D02*
X019908Y021840D01*
X019912Y021741D02*
X020089Y021741D01*
X020089Y021643D02*
X019910Y021643D01*
X019869Y021544D02*
X020089Y021544D01*
X020089Y021446D02*
X019809Y021446D01*
X019707Y021347D02*
X020089Y021347D01*
X020089Y022234D02*
X011873Y022234D01*
X011971Y022332D02*
X015320Y022332D01*
X015275Y022825D02*
X011469Y022825D01*
X011469Y022727D02*
X011828Y022727D01*
X011729Y022628D02*
X011469Y022628D01*
X011469Y022529D02*
X011631Y022529D01*
X011532Y022431D02*
X011469Y022431D01*
X011469Y023318D02*
X020089Y023318D01*
X020089Y023416D02*
X011469Y023416D01*
X011469Y023515D02*
X020089Y023515D01*
X020089Y023613D02*
X011469Y023613D01*
X011469Y023712D02*
X020089Y023712D01*
X020089Y023811D02*
X011469Y023811D01*
X011469Y023909D02*
X020089Y023909D01*
X020089Y024008D02*
X011469Y024008D01*
X011469Y024106D02*
X020089Y024106D01*
X020089Y024205D02*
X011481Y024205D01*
X011580Y024303D02*
X020089Y024303D01*
X020089Y024402D02*
X011678Y024402D01*
X011777Y024500D02*
X020089Y024500D01*
X020089Y024599D02*
X011875Y024599D01*
X011974Y024697D02*
X020089Y024697D01*
X020089Y024796D02*
X012073Y024796D01*
X012171Y024895D02*
X020089Y024895D01*
X020089Y024993D02*
X012270Y024993D01*
X012368Y025092D02*
X020089Y025092D01*
X020089Y025190D02*
X012467Y025190D01*
X012565Y025289D02*
X020089Y025289D01*
X020089Y025387D02*
X012664Y025387D01*
X012762Y025486D02*
X020089Y025486D01*
X020089Y025584D02*
X012861Y025584D01*
X012959Y025683D02*
X020089Y025683D01*
X020089Y025781D02*
X013058Y025781D01*
X013157Y025880D02*
X020089Y025880D01*
X020089Y025979D02*
X013255Y025979D01*
X013354Y026077D02*
X020089Y026077D01*
X020089Y026176D02*
X013452Y026176D01*
X013551Y026274D02*
X020089Y026274D01*
X020089Y026373D02*
X013649Y026373D01*
X013748Y026471D02*
X020089Y026471D01*
X020089Y026570D02*
X013846Y026570D01*
X013945Y026668D02*
X020089Y026668D01*
X020089Y026767D02*
X014043Y026767D01*
X014142Y026865D02*
X020089Y026865D01*
X020089Y026964D02*
X014241Y026964D01*
X014339Y027062D02*
X020089Y027062D01*
X020089Y027161D02*
X014438Y027161D01*
X014536Y027260D02*
X020089Y027260D01*
X020089Y027358D02*
X014635Y027358D01*
X014733Y027457D02*
X020089Y027457D01*
X020089Y027555D02*
X014832Y027555D01*
X014930Y027654D02*
X020089Y027654D01*
X020089Y027752D02*
X015029Y027752D01*
X015127Y027851D02*
X020089Y027851D01*
X020089Y027949D02*
X015226Y027949D01*
X015324Y028048D02*
X020089Y028048D01*
X020089Y028146D02*
X015423Y028146D01*
X015717Y028245D02*
X020089Y028245D01*
X020089Y028541D02*
X015843Y028541D01*
X015815Y028639D02*
X020089Y028639D01*
X020089Y028738D02*
X015748Y028738D01*
X015282Y028738D02*
X012865Y028738D01*
X012963Y028836D02*
X020089Y028836D01*
X020089Y028935D02*
X013062Y028935D01*
X013160Y029033D02*
X020089Y029033D01*
X020089Y029132D02*
X013259Y029132D01*
X013357Y029230D02*
X020089Y029230D01*
X020089Y029329D02*
X013456Y029329D01*
X013554Y029428D02*
X020089Y029428D01*
X020089Y029526D02*
X013653Y029526D01*
X013752Y029625D02*
X020089Y029625D01*
X020089Y029723D02*
X013850Y029723D01*
X013949Y029822D02*
X020089Y029822D01*
X020089Y029920D02*
X014047Y029920D01*
X014146Y030019D02*
X020089Y030019D01*
X020089Y030117D02*
X014244Y030117D01*
X014343Y030216D02*
X020089Y030216D01*
X020089Y030314D02*
X014441Y030314D01*
X014540Y030413D02*
X020089Y030413D01*
X020089Y030511D02*
X014638Y030511D01*
X014737Y030610D02*
X020089Y030610D01*
X020089Y030709D02*
X014836Y030709D01*
X014934Y030807D02*
X020089Y030807D01*
X020089Y030906D02*
X015033Y030906D01*
X015131Y031004D02*
X020089Y031004D01*
X020089Y031103D02*
X015230Y031103D01*
X015328Y031201D02*
X020089Y031201D01*
X020089Y031300D02*
X015427Y031300D01*
X015525Y031398D02*
X020089Y031398D01*
X020089Y031497D02*
X015624Y031497D01*
X015594Y031467D02*
X015594Y031467D01*
X015705Y031595D02*
X020089Y031595D01*
X020089Y031694D02*
X015705Y031694D01*
X015705Y031793D02*
X020089Y031793D01*
X020089Y031891D02*
X015705Y031891D01*
X015705Y031990D02*
X020089Y031990D01*
X020089Y032088D02*
X015705Y032088D01*
X015705Y032187D02*
X020089Y032187D01*
X020089Y032285D02*
X015705Y032285D01*
X015705Y032384D02*
X020089Y032384D01*
X020089Y032482D02*
X015705Y032482D01*
X015705Y032581D02*
X020089Y032581D01*
X020089Y032679D02*
X015705Y032679D01*
X015705Y032778D02*
X020089Y032778D01*
X020089Y032877D02*
X015705Y032877D01*
X015705Y032975D02*
X020089Y032975D01*
X020089Y033074D02*
X015705Y033074D01*
X015705Y033172D02*
X020089Y033172D01*
X020089Y033271D02*
X015705Y033271D01*
X015705Y033369D02*
X020089Y033369D01*
X020089Y033468D02*
X015705Y033468D01*
X015705Y033566D02*
X020089Y033566D01*
X020089Y033665D02*
X015705Y033665D01*
X015705Y033763D02*
X020089Y033763D01*
X020089Y033862D02*
X015705Y033862D01*
X015705Y033961D02*
X020089Y033961D01*
X020089Y034059D02*
X015705Y034059D01*
X015724Y034158D02*
X020089Y034158D01*
X020089Y034256D02*
X015805Y034256D01*
X015843Y034355D02*
X020089Y034355D01*
X020089Y034453D02*
X015843Y034453D01*
X015812Y034552D02*
X020089Y034552D01*
X020089Y034650D02*
X015741Y034650D01*
X015289Y034650D02*
X005505Y034650D01*
X005576Y034552D02*
X015217Y034552D01*
X015187Y034453D02*
X005607Y034453D01*
X005607Y034355D02*
X015187Y034355D01*
X015225Y034256D02*
X005569Y034256D01*
X005488Y034158D02*
X015306Y034158D01*
X015325Y034059D02*
X005469Y034059D01*
X005469Y033961D02*
X015325Y033961D01*
X015325Y033862D02*
X005469Y033862D01*
X005469Y033763D02*
X015325Y033763D01*
X015325Y033665D02*
X005469Y033665D01*
X005469Y033566D02*
X015325Y033566D01*
X015325Y033468D02*
X005469Y033468D01*
X005469Y033369D02*
X015325Y033369D01*
X015325Y033271D02*
X005469Y033271D01*
X005469Y033172D02*
X015325Y033172D01*
X015325Y033074D02*
X005469Y033074D01*
X005469Y032975D02*
X015325Y032975D01*
X015325Y032877D02*
X005469Y032877D01*
X005469Y032778D02*
X015325Y032778D01*
X015325Y032679D02*
X005469Y032679D01*
X005469Y032581D02*
X015325Y032581D01*
X015325Y032482D02*
X005469Y032482D01*
X005469Y032384D02*
X015325Y032384D01*
X015325Y032285D02*
X005469Y032285D01*
X005469Y032187D02*
X015325Y032187D01*
X015325Y032088D02*
X005469Y032088D01*
X005469Y031990D02*
X015325Y031990D01*
X015325Y031891D02*
X005469Y031891D01*
X005469Y031793D02*
X015325Y031793D01*
X015284Y031694D02*
X005510Y031694D01*
X005609Y031595D02*
X015185Y031595D01*
X015087Y031497D02*
X005707Y031497D01*
X005806Y031398D02*
X014988Y031398D01*
X014889Y031300D02*
X005904Y031300D01*
X006003Y031201D02*
X014791Y031201D01*
X014692Y031103D02*
X006101Y031103D01*
X006200Y031004D02*
X014594Y031004D01*
X014495Y030906D02*
X006298Y030906D01*
X006397Y030807D02*
X014397Y030807D01*
X014298Y030709D02*
X006496Y030709D01*
X006594Y030610D02*
X014200Y030610D01*
X014101Y030511D02*
X006693Y030511D01*
X006791Y030413D02*
X014003Y030413D01*
X013904Y030314D02*
X006890Y030314D01*
X006988Y030216D02*
X013805Y030216D01*
X013707Y030117D02*
X007087Y030117D01*
X007185Y030019D02*
X013608Y030019D01*
X013510Y029920D02*
X007284Y029920D01*
X007382Y029822D02*
X013411Y029822D01*
X013313Y029723D02*
X007481Y029723D01*
X007579Y029625D02*
X013214Y029625D01*
X013116Y029526D02*
X007678Y029526D01*
X007777Y029428D02*
X013017Y029428D01*
X012919Y029329D02*
X007875Y029329D01*
X007974Y029230D02*
X012820Y029230D01*
X012721Y029132D02*
X008072Y029132D01*
X008171Y029033D02*
X012623Y029033D01*
X012524Y028935D02*
X008269Y028935D01*
X008368Y028836D02*
X012426Y028836D01*
X012327Y028738D02*
X011418Y028738D01*
X011485Y028639D02*
X012229Y028639D01*
X012470Y028344D02*
X015083Y028344D01*
X015181Y028442D02*
X012569Y028442D01*
X012668Y028541D02*
X015187Y028541D01*
X015215Y028639D02*
X012766Y028639D01*
X012372Y028245D02*
X014984Y028245D01*
X014886Y028146D02*
X012273Y028146D01*
X012175Y028048D02*
X014787Y028048D01*
X014689Y027949D02*
X012076Y027949D01*
X011978Y027851D02*
X014590Y027851D01*
X014491Y027752D02*
X011879Y027752D01*
X011781Y027654D02*
X014393Y027654D01*
X014294Y027555D02*
X011682Y027555D01*
X011584Y027457D02*
X014196Y027457D01*
X014097Y027358D02*
X011485Y027358D01*
X011386Y027260D02*
X013999Y027260D01*
X013900Y027161D02*
X011288Y027161D01*
X011217Y027062D02*
X013802Y027062D01*
X013703Y026964D02*
X011217Y026964D01*
X011217Y026865D02*
X013605Y026865D01*
X013506Y026767D02*
X011217Y026767D01*
X011217Y026668D02*
X013408Y026668D01*
X013309Y026570D02*
X011217Y026570D01*
X011217Y026471D02*
X013210Y026471D01*
X013112Y026373D02*
X011217Y026373D01*
X011217Y026274D02*
X013013Y026274D01*
X012915Y026176D02*
X011217Y026176D01*
X011217Y026077D02*
X012816Y026077D01*
X012718Y025979D02*
X011217Y025979D01*
X011217Y025880D02*
X012619Y025880D01*
X012521Y025781D02*
X011217Y025781D01*
X011217Y025683D02*
X012422Y025683D01*
X012324Y025584D02*
X011217Y025584D01*
X011217Y025486D02*
X012225Y025486D01*
X012126Y025387D02*
X011217Y025387D01*
X011217Y025289D02*
X012028Y025289D01*
X011929Y025190D02*
X011217Y025190D01*
X011217Y025092D02*
X011831Y025092D01*
X011732Y024993D02*
X011217Y024993D01*
X011217Y024895D02*
X011634Y024895D01*
X011535Y024796D02*
X011217Y024796D01*
X011217Y024697D02*
X011437Y024697D01*
X011338Y024599D02*
X011217Y024599D01*
X011217Y024500D02*
X011240Y024500D01*
X010333Y024500D02*
X009554Y024500D01*
X009653Y024402D02*
X010333Y024402D01*
X010333Y024303D02*
X009751Y024303D01*
X009850Y024205D02*
X010333Y024205D01*
X010333Y024106D02*
X009948Y024106D01*
X010047Y024008D02*
X010333Y024008D01*
X010333Y023909D02*
X010145Y023909D01*
X010244Y023811D02*
X010333Y023811D01*
X010002Y023515D02*
X000704Y023515D01*
X000704Y023613D02*
X009904Y023613D01*
X009805Y023712D02*
X000704Y023712D01*
X000704Y023811D02*
X009707Y023811D01*
X009608Y023909D02*
X000704Y023909D01*
X000704Y024008D02*
X009509Y024008D01*
X009411Y024106D02*
X000704Y024106D01*
X000704Y024205D02*
X009312Y024205D01*
X009214Y024303D02*
X000704Y024303D01*
X000704Y024402D02*
X009115Y024402D01*
X009017Y024500D02*
X000704Y024500D01*
X000704Y024599D02*
X008918Y024599D01*
X008820Y024697D02*
X000704Y024697D01*
X000704Y024796D02*
X008721Y024796D01*
X008623Y024895D02*
X000704Y024895D01*
X000704Y024993D02*
X008524Y024993D01*
X008425Y025092D02*
X000704Y025092D01*
X000704Y025190D02*
X008327Y025190D01*
X008228Y025289D02*
X000704Y025289D01*
X000704Y025387D02*
X008130Y025387D01*
X008031Y025486D02*
X000704Y025486D01*
X000704Y025584D02*
X007933Y025584D01*
X007834Y025683D02*
X000704Y025683D01*
X000704Y025781D02*
X007736Y025781D01*
X007637Y025880D02*
X000704Y025880D01*
X000704Y025979D02*
X007539Y025979D01*
X007440Y026077D02*
X000704Y026077D01*
X000704Y026176D02*
X007341Y026176D01*
X007243Y026274D02*
X000704Y026274D01*
X000704Y026373D02*
X007144Y026373D01*
X007046Y026471D02*
X000704Y026471D01*
X000704Y026570D02*
X006947Y026570D01*
X006849Y026668D02*
X000704Y026668D01*
X000704Y026767D02*
X006750Y026767D01*
X006652Y026865D02*
X000704Y026865D01*
X000704Y026964D02*
X006553Y026964D01*
X006455Y027062D02*
X000704Y027062D01*
X000704Y027161D02*
X006356Y027161D01*
X006258Y027260D02*
X000704Y027260D01*
X000704Y027358D02*
X006159Y027358D01*
X006060Y027457D02*
X000704Y027457D01*
X000704Y027555D02*
X005962Y027555D01*
X005863Y027654D02*
X000704Y027654D01*
X000704Y027752D02*
X005765Y027752D01*
X005666Y027851D02*
X000704Y027851D01*
X000704Y027949D02*
X005568Y027949D01*
X005469Y028048D02*
X000704Y028048D01*
X000704Y028146D02*
X005371Y028146D01*
X005077Y028245D02*
X000704Y028245D01*
X000704Y028541D02*
X004951Y028541D01*
X004951Y028442D02*
X005001Y028321D01*
X004978Y028639D02*
X000704Y028639D01*
X000704Y028738D02*
X005045Y028738D01*
X005512Y028738D02*
X007929Y028738D01*
X007830Y028836D02*
X000704Y028836D01*
X000704Y028935D02*
X007732Y028935D01*
X007633Y029033D02*
X000704Y029033D01*
X000704Y029132D02*
X007535Y029132D01*
X007436Y029230D02*
X000704Y029230D01*
X000704Y029329D02*
X007338Y029329D01*
X007239Y029428D02*
X000704Y029428D01*
X000704Y029526D02*
X007141Y029526D01*
X007042Y029625D02*
X000704Y029625D01*
X000704Y029723D02*
X006944Y029723D01*
X006845Y029822D02*
X000704Y029822D01*
X000704Y029920D02*
X006746Y029920D01*
X006648Y030019D02*
X000704Y030019D01*
X000704Y030117D02*
X006549Y030117D01*
X006451Y030216D02*
X000704Y030216D01*
X000704Y030314D02*
X006352Y030314D01*
X006254Y030413D02*
X000704Y030413D01*
X000704Y030511D02*
X006155Y030511D01*
X006057Y030610D02*
X000704Y030610D01*
X000704Y030709D02*
X005958Y030709D01*
X005860Y030807D02*
X000704Y030807D01*
X000704Y030906D02*
X005761Y030906D01*
X005662Y031004D02*
X000704Y031004D01*
X000704Y031103D02*
X005564Y031103D01*
X005465Y031201D02*
X000704Y031201D01*
X000704Y031300D02*
X005367Y031300D01*
X005268Y031398D02*
X000704Y031398D01*
X000704Y031497D02*
X005170Y031497D01*
X005089Y031595D02*
X000704Y031595D01*
X000704Y031694D02*
X005089Y031694D01*
X005089Y031793D02*
X000704Y031793D01*
X000704Y031891D02*
X005089Y031891D01*
X005089Y031990D02*
X000704Y031990D01*
X000704Y032088D02*
X005089Y032088D01*
X005089Y032187D02*
X000704Y032187D01*
X000704Y032285D02*
X005089Y032285D01*
X005089Y032384D02*
X000704Y032384D01*
X000704Y032482D02*
X005089Y032482D01*
X005089Y032581D02*
X000704Y032581D01*
X000704Y032679D02*
X005089Y032679D01*
X005089Y032778D02*
X000704Y032778D01*
X000704Y032877D02*
X005089Y032877D01*
X005089Y032975D02*
X000704Y032975D01*
X000704Y033074D02*
X005089Y033074D01*
X005089Y033172D02*
X000704Y033172D01*
X000704Y033271D02*
X005089Y033271D01*
X005089Y033369D02*
X000704Y033369D01*
X000704Y033468D02*
X005089Y033468D01*
X005089Y033566D02*
X000704Y033566D01*
X000704Y033665D02*
X005089Y033665D01*
X005089Y033763D02*
X000704Y033763D01*
X000704Y033862D02*
X005089Y033862D01*
X005089Y033961D02*
X000704Y033961D01*
X000704Y034059D02*
X005089Y034059D01*
X005070Y034158D02*
X000704Y034158D01*
X000704Y034256D02*
X004988Y034256D01*
X004951Y034355D02*
X000704Y034355D01*
X000704Y034453D02*
X004951Y034453D01*
X004981Y034552D02*
X000704Y034552D01*
X000704Y034650D02*
X005052Y034650D01*
X002397Y038301D02*
X002515Y038588D01*
X002515Y038898D01*
X002397Y039185D01*
X002177Y039404D01*
X001891Y039523D01*
X001580Y039523D01*
X001294Y039404D01*
X001074Y039185D01*
X000956Y038898D01*
X000956Y038588D01*
X001074Y038301D01*
X001294Y038082D01*
X001580Y037963D01*
X001891Y037963D01*
X002177Y038082D01*
X002397Y038301D01*
X002391Y038296D02*
X018402Y038296D01*
X018397Y038301D02*
X018616Y038082D01*
X018903Y037963D01*
X019213Y037963D01*
X019500Y038082D01*
X019719Y038301D01*
X019838Y038588D01*
X019838Y038898D01*
X019719Y039185D01*
X019500Y039404D01*
X019213Y039523D01*
X018903Y039523D01*
X018616Y039404D01*
X018397Y039185D01*
X018278Y038898D01*
X018278Y038588D01*
X018397Y038301D01*
X018358Y038395D02*
X002435Y038395D01*
X002476Y038494D02*
X018318Y038494D01*
X018278Y038592D02*
X002515Y038592D01*
X002515Y038691D02*
X018278Y038691D01*
X018278Y038789D02*
X002515Y038789D01*
X002515Y038888D02*
X018278Y038888D01*
X018315Y038986D02*
X002479Y038986D01*
X002438Y039085D02*
X018356Y039085D01*
X018396Y039183D02*
X002397Y039183D01*
X002300Y039282D02*
X018494Y039282D01*
X018592Y039380D02*
X002201Y039380D01*
X001997Y039479D02*
X018796Y039479D01*
X019320Y039479D02*
X020089Y039479D01*
X020089Y039577D02*
X000704Y039577D01*
X000704Y039479D02*
X001473Y039479D01*
X001270Y039380D02*
X000704Y039380D01*
X000704Y039282D02*
X001171Y039282D01*
X001074Y039183D02*
X000704Y039183D01*
X000704Y039085D02*
X001033Y039085D01*
X000992Y038986D02*
X000704Y038986D01*
X000704Y038888D02*
X000956Y038888D01*
X000956Y038789D02*
X000704Y038789D01*
X000704Y038691D02*
X000956Y038691D01*
X000956Y038592D02*
X000704Y038592D01*
X000704Y038494D02*
X000995Y038494D01*
X001036Y038395D02*
X000704Y038395D01*
X000704Y038296D02*
X001079Y038296D01*
X001178Y038198D02*
X000704Y038198D01*
X000704Y038099D02*
X001276Y038099D01*
X001490Y038001D02*
X000704Y038001D01*
X000704Y037902D02*
X020089Y037902D01*
X020089Y037804D02*
X000704Y037804D01*
X000704Y037705D02*
X020089Y037705D01*
X020089Y037607D02*
X000704Y037607D01*
X000704Y037508D02*
X020089Y037508D01*
X020089Y037410D02*
X000704Y037410D01*
X000704Y037311D02*
X020089Y037311D01*
X020089Y037212D02*
X000704Y037212D01*
X000704Y037114D02*
X020089Y037114D01*
X020089Y037015D02*
X000704Y037015D01*
X000704Y036917D02*
X020089Y036917D01*
X020089Y036818D02*
X000704Y036818D01*
X000704Y036720D02*
X020089Y036720D01*
X020089Y036621D02*
X000704Y036621D01*
X000704Y036523D02*
X020089Y036523D01*
X020089Y036424D02*
X000704Y036424D01*
X000704Y036326D02*
X020089Y036326D01*
X020089Y036227D02*
X000704Y036227D01*
X000704Y036128D02*
X020089Y036128D01*
X020089Y036030D02*
X000704Y036030D01*
X000704Y035931D02*
X020089Y035931D01*
X020089Y035833D02*
X000704Y035833D01*
X000704Y035734D02*
X020089Y035734D01*
X020089Y035636D02*
X000704Y035636D01*
X000704Y035537D02*
X020089Y035537D01*
X020089Y035439D02*
X000704Y035439D01*
X000704Y035340D02*
X020089Y035340D01*
X020089Y035242D02*
X000704Y035242D01*
X000704Y035143D02*
X020089Y035143D01*
X020089Y035044D02*
X000704Y035044D01*
X000704Y034946D02*
X020089Y034946D01*
X020089Y034847D02*
X000704Y034847D01*
X000704Y034749D02*
X020089Y034749D01*
X020089Y038001D02*
X019304Y038001D01*
X019517Y038099D02*
X020089Y038099D01*
X020089Y038198D02*
X019616Y038198D01*
X019714Y038296D02*
X020089Y038296D01*
X020089Y038395D02*
X019758Y038395D01*
X019799Y038494D02*
X020089Y038494D01*
X020089Y038592D02*
X019838Y038592D01*
X019838Y038691D02*
X020089Y038691D01*
X020089Y038789D02*
X019838Y038789D01*
X019838Y038888D02*
X020089Y038888D01*
X020089Y038986D02*
X019802Y038986D01*
X019761Y039085D02*
X020089Y039085D01*
X020089Y039183D02*
X019720Y039183D01*
X019623Y039282D02*
X020089Y039282D01*
X020089Y039380D02*
X019524Y039380D01*
X020089Y039676D02*
X000704Y039676D01*
X000704Y039774D02*
X020089Y039774D01*
X020089Y000704D01*
X000704Y000704D01*
X000704Y039774D01*
X001981Y038001D02*
X018813Y038001D01*
X018599Y038099D02*
X002194Y038099D01*
X002293Y038198D02*
X018501Y038198D01*
X011933Y028344D02*
X011472Y028344D01*
X011512Y028442D02*
X011512Y028572D01*
X011386Y028245D02*
X011835Y028245D01*
X011736Y028146D02*
X011092Y028146D01*
X010994Y028048D02*
X011638Y028048D01*
X011539Y027949D02*
X010965Y027949D01*
X010965Y027851D02*
X011440Y027851D01*
X011342Y027752D02*
X010965Y027752D01*
X010965Y027654D02*
X011243Y027654D01*
X011145Y027555D02*
X010965Y027555D01*
X010965Y027457D02*
X011046Y027457D01*
X010653Y028245D02*
X008959Y028245D01*
X008861Y028344D02*
X010752Y028344D01*
X010851Y028442D02*
X008762Y028442D01*
X008663Y028541D02*
X010856Y028541D01*
X010884Y028639D02*
X008565Y028639D01*
X008466Y028738D02*
X010951Y028738D01*
X010585Y028146D02*
X009058Y028146D01*
X009156Y028048D02*
X010585Y028048D01*
X010585Y027949D02*
X009255Y027949D01*
X009353Y027851D02*
X010585Y027851D01*
X010585Y027752D02*
X009452Y027752D01*
X009550Y027654D02*
X010585Y027654D01*
X010585Y027555D02*
X009649Y027555D01*
X009747Y027457D02*
X010585Y027457D01*
X010585Y027358D02*
X009846Y027358D01*
X009945Y027260D02*
X010585Y027260D01*
X010585Y027161D02*
X010043Y027161D01*
X010142Y027062D02*
X010585Y027062D01*
X010585Y026964D02*
X010240Y026964D01*
X010339Y026865D02*
X010585Y026865D01*
X010585Y026767D02*
X010437Y026767D01*
X010536Y026668D02*
X010585Y026668D01*
X010294Y026373D02*
X007682Y026373D01*
X007583Y026471D02*
X010195Y026471D01*
X010097Y026570D02*
X007485Y026570D01*
X007386Y026668D02*
X009998Y026668D01*
X009900Y026767D02*
X007288Y026767D01*
X007189Y026865D02*
X009801Y026865D01*
X009703Y026964D02*
X007091Y026964D01*
X006992Y027062D02*
X009604Y027062D01*
X009506Y027161D02*
X006893Y027161D01*
X006795Y027260D02*
X009407Y027260D01*
X009309Y027358D02*
X006696Y027358D01*
X006598Y027457D02*
X009210Y027457D01*
X009111Y027555D02*
X006499Y027555D01*
X006401Y027654D02*
X009013Y027654D01*
X008914Y027752D02*
X006302Y027752D01*
X006204Y027851D02*
X008816Y027851D01*
X008717Y027949D02*
X006105Y027949D01*
X006007Y028048D02*
X008619Y028048D01*
X008520Y028146D02*
X005908Y028146D01*
X005809Y028245D02*
X008422Y028245D01*
X008323Y028344D02*
X005711Y028344D01*
X005612Y028442D02*
X008225Y028442D01*
X008126Y028541D02*
X005607Y028541D01*
X005579Y028639D02*
X008028Y028639D01*
X007780Y026274D02*
X010333Y026274D01*
X010333Y026176D02*
X007879Y026176D01*
X007977Y026077D02*
X010333Y026077D01*
X010333Y025979D02*
X008076Y025979D01*
X008175Y025880D02*
X010333Y025880D01*
X010333Y025781D02*
X008273Y025781D01*
X008372Y025683D02*
X010333Y025683D01*
X010333Y025584D02*
X008470Y025584D01*
X008569Y025486D02*
X010333Y025486D01*
X010333Y025387D02*
X008667Y025387D01*
X008766Y025289D02*
X010333Y025289D01*
X010333Y025190D02*
X008864Y025190D01*
X008963Y025092D02*
X010333Y025092D01*
X010333Y024993D02*
X009061Y024993D01*
X009160Y024895D02*
X010333Y024895D01*
X010333Y024796D02*
X009259Y024796D01*
X009357Y024697D02*
X010333Y024697D01*
X010333Y024599D02*
X009456Y024599D01*
X010081Y023416D02*
X000704Y023416D01*
X000704Y023318D02*
X010081Y023318D01*
X010081Y022825D02*
X005519Y022825D01*
X005474Y022332D02*
X009610Y022332D01*
X009852Y022628D02*
X010081Y022628D01*
X010081Y022529D02*
X009950Y022529D01*
X010049Y022431D02*
X010081Y022431D01*
X010081Y022727D02*
X009753Y022727D01*
X009011Y021708D02*
X009011Y021263D01*
X009011Y021708D01*
X009011Y021643D02*
X009011Y021643D01*
X009011Y021544D02*
X009011Y021544D01*
X009011Y021446D02*
X009011Y021446D01*
X009011Y021347D02*
X009011Y021347D01*
X009011Y021263D02*
X009011Y021263D01*
X011469Y018095D02*
X011485Y018095D01*
X011469Y017996D02*
X011584Y017996D01*
X011682Y017898D02*
X011469Y017898D01*
X011469Y017799D02*
X011781Y017799D01*
X011879Y017701D02*
X011469Y017701D01*
X010583Y013858D02*
X010585Y013858D01*
X010585Y013759D02*
X010484Y013759D01*
X010386Y013661D02*
X010585Y013661D01*
X010585Y013562D02*
X010287Y013562D01*
X010189Y013464D02*
X010585Y013464D01*
X010585Y013365D02*
X010090Y013365D01*
X009992Y013266D02*
X010585Y013266D01*
X010585Y013168D02*
X009893Y013168D01*
X009795Y013069D02*
X010585Y013069D01*
X010585Y012971D02*
X009696Y012971D01*
X009598Y012872D02*
X010585Y012872D01*
X010585Y012774D02*
X009499Y012774D01*
X009401Y012675D02*
X010585Y012675D01*
X010585Y012577D02*
X009302Y012577D01*
X009203Y012478D02*
X010585Y012478D01*
X010585Y012380D02*
X009105Y012380D01*
X009006Y012281D02*
X010606Y012281D01*
X010705Y012182D02*
X008908Y012182D01*
X008809Y012084D02*
X010803Y012084D01*
X010856Y011985D02*
X008711Y011985D01*
X008612Y011887D02*
X010864Y011887D01*
X010905Y011788D02*
X008514Y011788D01*
X008415Y011690D02*
X011007Y011690D01*
X011361Y011690D02*
X012379Y011690D01*
X012477Y011591D02*
X008317Y011591D01*
X008218Y011493D02*
X012576Y011493D01*
X012674Y011394D02*
X008119Y011394D01*
X008021Y011296D02*
X012773Y011296D01*
X012871Y011197D02*
X007922Y011197D01*
X007824Y011098D02*
X012970Y011098D01*
X013068Y011000D02*
X007725Y011000D01*
X007627Y010901D02*
X013167Y010901D01*
X013265Y010803D02*
X007528Y010803D01*
X007430Y010704D02*
X013364Y010704D01*
X013463Y010606D02*
X007331Y010606D01*
X007233Y010507D02*
X013561Y010507D01*
X013660Y010409D02*
X007134Y010409D01*
X007035Y010310D02*
X013758Y010310D01*
X013857Y010212D02*
X006937Y010212D01*
X006838Y010113D02*
X013955Y010113D01*
X014054Y010014D02*
X006740Y010014D01*
X006641Y009916D02*
X014152Y009916D01*
X014251Y009817D02*
X006543Y009817D01*
X006444Y009719D02*
X014349Y009719D01*
X014448Y009620D02*
X006346Y009620D01*
X006247Y009522D02*
X014546Y009522D01*
X014645Y009423D02*
X006149Y009423D01*
X006050Y009325D02*
X014744Y009325D01*
X014842Y009226D02*
X005951Y009226D01*
X005853Y009128D02*
X014941Y009128D01*
X015039Y009029D02*
X005754Y009029D01*
X005656Y008931D02*
X015138Y008931D01*
X015236Y008832D02*
X005557Y008832D01*
X005469Y008733D02*
X015325Y008733D01*
X015325Y008635D02*
X005469Y008635D01*
X005469Y008536D02*
X015325Y008536D01*
X015325Y008438D02*
X005469Y008438D01*
X005469Y008339D02*
X015325Y008339D01*
X015325Y008241D02*
X005469Y008241D01*
X005469Y008142D02*
X015325Y008142D01*
X015325Y008044D02*
X005469Y008044D01*
X005469Y007945D02*
X015325Y007945D01*
X015325Y007847D02*
X005469Y007847D01*
X005469Y007748D02*
X015325Y007748D01*
X015325Y007649D02*
X005469Y007649D01*
X005469Y007551D02*
X015325Y007551D01*
X015325Y007452D02*
X005469Y007452D01*
X005469Y007354D02*
X015325Y007354D01*
X015325Y007255D02*
X005469Y007255D01*
X005469Y007157D02*
X015325Y007157D01*
X015325Y007058D02*
X005469Y007058D01*
X005469Y006960D02*
X015325Y006960D01*
X015325Y006861D02*
X005469Y006861D01*
X005469Y006763D02*
X015325Y006763D01*
X015325Y006664D02*
X005469Y006664D01*
X005469Y006565D02*
X015325Y006565D01*
X015325Y006467D02*
X005469Y006467D01*
X005469Y006368D02*
X015325Y006368D01*
X015255Y006270D02*
X005539Y006270D01*
X005590Y006171D02*
X015203Y006171D01*
X015187Y006073D02*
X005607Y006073D01*
X005596Y005974D02*
X015198Y005974D01*
X015241Y005876D02*
X005552Y005876D01*
X005438Y005777D02*
X015355Y005777D01*
X015675Y005777D02*
X020089Y005777D01*
X020089Y005679D02*
X000704Y005679D01*
X000704Y005777D02*
X005119Y005777D01*
X005005Y005876D02*
X000704Y005876D01*
X000704Y005974D02*
X004962Y005974D01*
X004951Y006073D02*
X000704Y006073D01*
X000704Y006171D02*
X004967Y006171D01*
X005018Y006270D02*
X000704Y006270D01*
X000704Y006368D02*
X005089Y006368D01*
X005089Y006467D02*
X000704Y006467D01*
X000704Y006565D02*
X005089Y006565D01*
X005089Y006664D02*
X000704Y006664D01*
X000704Y006763D02*
X005089Y006763D01*
X005089Y006861D02*
X000704Y006861D01*
X000704Y006960D02*
X005089Y006960D01*
X005089Y007058D02*
X000704Y007058D01*
X000704Y007157D02*
X005089Y007157D01*
X005089Y007255D02*
X000704Y007255D01*
X000704Y007354D02*
X005089Y007354D01*
X005089Y007452D02*
X000704Y007452D01*
X000704Y007551D02*
X005089Y007551D01*
X005089Y007649D02*
X000704Y007649D01*
X000704Y007748D02*
X005089Y007748D01*
X005089Y007847D02*
X000704Y007847D01*
X000704Y007945D02*
X005089Y007945D01*
X005089Y008044D02*
X000704Y008044D01*
X000704Y008142D02*
X005089Y008142D01*
X005089Y008241D02*
X000704Y008241D01*
X000704Y008339D02*
X005089Y008339D01*
X005089Y008438D02*
X000704Y008438D01*
X000704Y008536D02*
X005089Y008536D01*
X005089Y008635D02*
X000704Y008635D01*
X000704Y008733D02*
X005089Y008733D01*
X005089Y008832D02*
X000704Y008832D01*
X000704Y008931D02*
X005119Y008931D01*
X005217Y009029D02*
X000704Y009029D01*
X000704Y009128D02*
X005316Y009128D01*
X005414Y009226D02*
X000704Y009226D01*
X000704Y009325D02*
X005513Y009325D01*
X005611Y009423D02*
X000704Y009423D01*
X000704Y009522D02*
X005710Y009522D01*
X005808Y009620D02*
X000704Y009620D01*
X000704Y009719D02*
X005907Y009719D01*
X006005Y009817D02*
X000704Y009817D01*
X000704Y009916D02*
X006104Y009916D01*
X006202Y010014D02*
X000704Y010014D01*
X000704Y010113D02*
X006301Y010113D01*
X006400Y010212D02*
X000704Y010212D01*
X000704Y010310D02*
X006498Y010310D01*
X006597Y010409D02*
X000704Y010409D01*
X000704Y010507D02*
X006695Y010507D01*
X006794Y010606D02*
X000704Y010606D01*
X000704Y010704D02*
X006892Y010704D01*
X006991Y010803D02*
X000704Y010803D01*
X000704Y010901D02*
X007089Y010901D01*
X007188Y011000D02*
X000704Y011000D01*
X000704Y011098D02*
X007286Y011098D01*
X007385Y011197D02*
X000704Y011197D01*
X000704Y011296D02*
X007484Y011296D01*
X007582Y011394D02*
X000704Y011394D01*
X000704Y011493D02*
X007681Y011493D01*
X007779Y011591D02*
X000704Y011591D01*
X000704Y005580D02*
X020089Y005580D01*
X020089Y005481D02*
X000704Y005481D01*
X000704Y005383D02*
X020089Y005383D01*
X020089Y005284D02*
X000704Y005284D01*
X000704Y005186D02*
X020089Y005186D01*
X020089Y005087D02*
X000704Y005087D01*
X000704Y004989D02*
X020089Y004989D01*
X020089Y004890D02*
X000704Y004890D01*
X000704Y004792D02*
X020089Y004792D01*
X020089Y004693D02*
X000704Y004693D01*
X000704Y004595D02*
X020089Y004595D01*
X020089Y004496D02*
X000704Y004496D01*
X000704Y004398D02*
X020089Y004398D01*
X020089Y004299D02*
X000704Y004299D01*
X000704Y004200D02*
X020089Y004200D01*
X020089Y004102D02*
X000704Y004102D01*
X000704Y004003D02*
X020089Y004003D01*
X020089Y003905D02*
X000704Y003905D01*
X000704Y003806D02*
X020089Y003806D01*
X020089Y003708D02*
X000704Y003708D01*
X000704Y003609D02*
X020089Y003609D01*
X020089Y003511D02*
X000704Y003511D01*
X000704Y003412D02*
X020089Y003412D01*
X020089Y003314D02*
X000704Y003314D01*
X000704Y003215D02*
X020089Y003215D01*
X020089Y003116D02*
X000704Y003116D01*
X000704Y003018D02*
X020089Y003018D01*
X020089Y002919D02*
X000704Y002919D01*
X000704Y002821D02*
X020089Y002821D01*
X020089Y002722D02*
X000704Y002722D01*
X000704Y002624D02*
X020089Y002624D01*
X020089Y002525D02*
X000704Y002525D01*
X000704Y002427D02*
X001366Y002427D01*
X001294Y002397D02*
X001074Y002177D01*
X000956Y001891D01*
X000956Y001580D01*
X001074Y001294D01*
X001294Y001074D01*
X001580Y000956D01*
X001891Y000956D01*
X002177Y001074D01*
X002397Y001294D01*
X002515Y001580D01*
X002515Y001891D01*
X002397Y002177D01*
X002177Y002397D01*
X001891Y002515D01*
X001580Y002515D01*
X001294Y002397D01*
X001225Y002328D02*
X000704Y002328D01*
X000704Y002230D02*
X001127Y002230D01*
X001055Y002131D02*
X000704Y002131D01*
X000704Y002032D02*
X001014Y002032D01*
X000974Y001934D02*
X000704Y001934D01*
X000704Y001835D02*
X000956Y001835D01*
X000956Y001737D02*
X000704Y001737D01*
X000704Y001638D02*
X000956Y001638D01*
X000972Y001540D02*
X000704Y001540D01*
X000704Y001441D02*
X001013Y001441D01*
X001054Y001343D02*
X000704Y001343D01*
X000704Y001244D02*
X001124Y001244D01*
X001222Y001146D02*
X000704Y001146D01*
X000704Y001047D02*
X001359Y001047D01*
X000704Y000949D02*
X020089Y000949D01*
X020089Y001047D02*
X019434Y001047D01*
X019500Y001074D02*
X019719Y001294D01*
X019838Y001580D01*
X019838Y001891D01*
X019719Y002177D01*
X019500Y002397D01*
X019213Y002515D01*
X018903Y002515D01*
X018616Y002397D01*
X018397Y002177D01*
X018278Y001891D01*
X018278Y001580D01*
X018397Y001294D01*
X018616Y001074D01*
X018903Y000956D01*
X019213Y000956D01*
X019500Y001074D01*
X019571Y001146D02*
X020089Y001146D01*
X020089Y001244D02*
X019670Y001244D01*
X019740Y001343D02*
X020089Y001343D01*
X020089Y001441D02*
X019781Y001441D01*
X019821Y001540D02*
X020089Y001540D01*
X020089Y001638D02*
X019838Y001638D01*
X019838Y001737D02*
X020089Y001737D01*
X020089Y001835D02*
X019838Y001835D01*
X019820Y001934D02*
X020089Y001934D01*
X020089Y002032D02*
X019779Y002032D01*
X019739Y002131D02*
X020089Y002131D01*
X020089Y002230D02*
X019667Y002230D01*
X019569Y002328D02*
X020089Y002328D01*
X020089Y002427D02*
X019427Y002427D01*
X020089Y000850D02*
X000704Y000850D01*
X000704Y000751D02*
X020089Y000751D01*
X018682Y001047D02*
X002111Y001047D01*
X002249Y001146D02*
X018545Y001146D01*
X018447Y001244D02*
X002347Y001244D01*
X002417Y001343D02*
X018377Y001343D01*
X018336Y001441D02*
X002458Y001441D01*
X002499Y001540D02*
X018295Y001540D01*
X018278Y001638D02*
X002515Y001638D01*
X002515Y001737D02*
X018278Y001737D01*
X018278Y001835D02*
X002515Y001835D01*
X002497Y001934D02*
X018296Y001934D01*
X018337Y002032D02*
X002457Y002032D01*
X002416Y002131D02*
X018378Y002131D01*
X018449Y002230D02*
X002344Y002230D01*
X002246Y002328D02*
X018548Y002328D01*
X018689Y002427D02*
X002105Y002427D01*
X010965Y012478D02*
X011590Y012478D01*
X011492Y012577D02*
X010965Y012577D01*
X010965Y012675D02*
X011393Y012675D01*
X011295Y012774D02*
X010965Y012774D01*
X010965Y012872D02*
X011196Y012872D01*
X011097Y012971D02*
X010965Y012971D01*
X010965Y013069D02*
X010999Y013069D01*
X011045Y012380D02*
X011689Y012380D01*
X011787Y012281D02*
X011295Y012281D01*
X011437Y012182D02*
X011886Y012182D01*
X011984Y012084D02*
X011493Y012084D01*
X011512Y011985D02*
X012083Y011985D01*
X012181Y011887D02*
X011504Y011887D01*
X011463Y011788D02*
X012280Y011788D01*
X013014Y011591D02*
X020089Y011591D01*
X020089Y011493D02*
X013113Y011493D01*
X013212Y011394D02*
X020089Y011394D01*
X020089Y011296D02*
X013310Y011296D01*
X013409Y011197D02*
X020089Y011197D01*
X020089Y011098D02*
X013507Y011098D01*
X013606Y011000D02*
X020089Y011000D01*
X020089Y010901D02*
X013704Y010901D01*
X013803Y010803D02*
X020089Y010803D01*
X020089Y010704D02*
X013901Y010704D01*
X014000Y010606D02*
X020089Y010606D01*
X020089Y010507D02*
X014098Y010507D01*
X014197Y010409D02*
X020089Y010409D01*
X020089Y010310D02*
X014296Y010310D01*
X014394Y010212D02*
X020089Y010212D01*
X020089Y010113D02*
X014493Y010113D01*
X014591Y010014D02*
X020089Y010014D01*
X020089Y009916D02*
X014690Y009916D01*
X014788Y009817D02*
X020089Y009817D01*
X020089Y009719D02*
X014887Y009719D01*
X014985Y009620D02*
X020089Y009620D01*
X020089Y009522D02*
X015084Y009522D01*
X015182Y009423D02*
X020089Y009423D01*
X020089Y009325D02*
X015281Y009325D01*
X015380Y009226D02*
X020089Y009226D01*
X020089Y009128D02*
X015478Y009128D01*
X015577Y009029D02*
X020089Y009029D01*
X020089Y008931D02*
X015675Y008931D01*
X015705Y008832D02*
X020089Y008832D01*
X020089Y008733D02*
X015705Y008733D01*
X015705Y008635D02*
X020089Y008635D01*
X020089Y008536D02*
X015705Y008536D01*
X015705Y008438D02*
X020089Y008438D01*
X020089Y008339D02*
X015705Y008339D01*
X015705Y008241D02*
X020089Y008241D01*
X020089Y008142D02*
X015705Y008142D01*
X015705Y008044D02*
X020089Y008044D01*
X020089Y007945D02*
X015705Y007945D01*
X015705Y007847D02*
X020089Y007847D01*
X020089Y007748D02*
X015705Y007748D01*
X015705Y007649D02*
X020089Y007649D01*
X020089Y007551D02*
X015705Y007551D01*
X015705Y007452D02*
X020089Y007452D01*
X020089Y007354D02*
X015705Y007354D01*
X015705Y007255D02*
X020089Y007255D01*
X020089Y007157D02*
X015705Y007157D01*
X015705Y007058D02*
X020089Y007058D01*
X020089Y006960D02*
X015705Y006960D01*
X015705Y006861D02*
X020089Y006861D01*
X020089Y006763D02*
X015705Y006763D01*
X015705Y006664D02*
X020089Y006664D01*
X020089Y006565D02*
X015705Y006565D01*
X015705Y006467D02*
X020089Y006467D01*
X020089Y006368D02*
X015705Y006368D01*
X015775Y006270D02*
X020089Y006270D01*
X020089Y006171D02*
X015827Y006171D01*
X015843Y006073D02*
X020089Y006073D01*
X020089Y005974D02*
X015832Y005974D01*
X015788Y005876D02*
X020089Y005876D01*
D16*
X015515Y006066D02*
X015515Y008822D01*
X011027Y013310D01*
X011027Y019216D01*
X011279Y019216D02*
X011279Y016208D01*
X015515Y011972D01*
X015515Y017877D02*
X011972Y017877D01*
X011531Y018318D01*
X011531Y019216D01*
X010775Y019216D02*
X010775Y012381D01*
X011184Y011972D01*
X010523Y014066D02*
X005279Y008822D01*
X005279Y006066D01*
X005279Y011972D02*
X010271Y016964D01*
X010271Y019216D01*
X010523Y019216D02*
X010523Y014066D01*
X009609Y017877D02*
X005279Y017877D01*
X003231Y019767D02*
X009767Y019767D01*
X009767Y019216D01*
X009515Y019216D02*
X009515Y018405D01*
X009531Y018389D01*
X009263Y018791D02*
X008861Y018389D01*
X008172Y018389D01*
X008665Y018822D02*
X008665Y019216D01*
X008172Y019216D01*
X008665Y019216D02*
X009011Y019216D01*
X009263Y019216D02*
X009263Y018791D01*
X010019Y018287D02*
X009609Y017877D01*
X010019Y018287D02*
X010019Y019216D01*
X009767Y019767D02*
X017523Y019767D01*
X018550Y018739D01*
X019452Y018739D01*
X019452Y019739D02*
X017983Y019739D01*
X017641Y020082D01*
X009609Y020082D01*
X003153Y020082D01*
X002810Y019739D01*
X001342Y019739D01*
X001342Y018739D02*
X002204Y018739D01*
X003231Y019767D01*
X002759Y020397D02*
X009491Y020397D01*
X009515Y020420D01*
X009515Y021263D01*
X009767Y021263D02*
X009767Y021657D01*
X009609Y021814D01*
X010019Y022192D02*
X009609Y022602D01*
X005279Y022602D01*
X002917Y020633D02*
X009176Y020633D01*
X009263Y020720D01*
X009263Y021263D01*
X009491Y020397D02*
X018035Y020397D01*
X018377Y020739D01*
X019452Y020739D01*
X015515Y022602D02*
X011972Y022602D01*
X011531Y022161D01*
X011531Y021263D01*
X011279Y021263D02*
X011279Y024271D01*
X015515Y028507D01*
X015515Y031657D02*
X015515Y034413D01*
X015515Y031657D02*
X011027Y027169D01*
X011027Y021263D01*
X010775Y021263D02*
X010775Y028098D01*
X011184Y028507D01*
X010523Y026413D02*
X005279Y031657D01*
X005279Y034413D01*
X005279Y028507D02*
X010271Y023515D01*
X010271Y021263D01*
X010523Y021263D02*
X010523Y026413D01*
X010019Y022192D02*
X010019Y021263D01*
X002917Y020633D02*
X001810Y021739D01*
X001342Y021739D01*
X001342Y020739D02*
X002417Y020739D01*
X002759Y020397D01*
D17*
X008665Y018822D03*
X009531Y018389D03*
X009609Y020082D03*
X009609Y021814D03*
D18*
X011184Y028507D03*
X015515Y028507D03*
X015515Y022602D03*
X015515Y017877D03*
X015515Y011972D03*
X015515Y006066D03*
X011184Y011972D03*
X005279Y011972D03*
X005279Y017877D03*
X005279Y022602D03*
X005279Y028507D03*
X005279Y034413D03*
X015515Y034413D03*
X005279Y006066D03*
M02*
