G75*
G70*
%OFA0B0*%
%FSLAX24Y24*%
%IPPOS*%
%LPD*%
%AMOC8*
5,1,8,0,0,1.08239X$1,22.5*
%
%ADD10C,0.0000*%
%ADD11C,0.0200*%
%ADD12C,0.0100*%
%ADD13C,0.0050*%
%ADD14C,0.0040*%
%ADD15C,0.0080*%
D10*
X000554Y000554D02*
X000554Y039924D01*
X020239Y039924D01*
X020239Y000554D01*
X000554Y000554D01*
X001105Y001735D02*
X001107Y001785D01*
X001113Y001835D01*
X001123Y001884D01*
X001137Y001932D01*
X001154Y001979D01*
X001175Y002024D01*
X001200Y002068D01*
X001228Y002109D01*
X001260Y002148D01*
X001294Y002185D01*
X001331Y002219D01*
X001371Y002249D01*
X001413Y002276D01*
X001457Y002300D01*
X001503Y002321D01*
X001550Y002337D01*
X001598Y002350D01*
X001648Y002359D01*
X001697Y002364D01*
X001748Y002365D01*
X001798Y002362D01*
X001847Y002355D01*
X001896Y002344D01*
X001944Y002329D01*
X001990Y002311D01*
X002035Y002289D01*
X002078Y002263D01*
X002119Y002234D01*
X002158Y002202D01*
X002194Y002167D01*
X002226Y002129D01*
X002256Y002089D01*
X002283Y002046D01*
X002306Y002002D01*
X002325Y001956D01*
X002341Y001908D01*
X002353Y001859D01*
X002361Y001810D01*
X002365Y001760D01*
X002365Y001710D01*
X002361Y001660D01*
X002353Y001611D01*
X002341Y001562D01*
X002325Y001514D01*
X002306Y001468D01*
X002283Y001424D01*
X002256Y001381D01*
X002226Y001341D01*
X002194Y001303D01*
X002158Y001268D01*
X002119Y001236D01*
X002078Y001207D01*
X002035Y001181D01*
X001990Y001159D01*
X001944Y001141D01*
X001896Y001126D01*
X001847Y001115D01*
X001798Y001108D01*
X001748Y001105D01*
X001697Y001106D01*
X001648Y001111D01*
X001598Y001120D01*
X001550Y001133D01*
X001503Y001149D01*
X001457Y001170D01*
X001413Y001194D01*
X001371Y001221D01*
X001331Y001251D01*
X001294Y001285D01*
X001260Y001322D01*
X001228Y001361D01*
X001200Y001402D01*
X001175Y001446D01*
X001154Y001491D01*
X001137Y001538D01*
X001123Y001586D01*
X001113Y001635D01*
X001107Y001685D01*
X001105Y001735D01*
X018428Y001735D02*
X018430Y001785D01*
X018436Y001835D01*
X018446Y001884D01*
X018460Y001932D01*
X018477Y001979D01*
X018498Y002024D01*
X018523Y002068D01*
X018551Y002109D01*
X018583Y002148D01*
X018617Y002185D01*
X018654Y002219D01*
X018694Y002249D01*
X018736Y002276D01*
X018780Y002300D01*
X018826Y002321D01*
X018873Y002337D01*
X018921Y002350D01*
X018971Y002359D01*
X019020Y002364D01*
X019071Y002365D01*
X019121Y002362D01*
X019170Y002355D01*
X019219Y002344D01*
X019267Y002329D01*
X019313Y002311D01*
X019358Y002289D01*
X019401Y002263D01*
X019442Y002234D01*
X019481Y002202D01*
X019517Y002167D01*
X019549Y002129D01*
X019579Y002089D01*
X019606Y002046D01*
X019629Y002002D01*
X019648Y001956D01*
X019664Y001908D01*
X019676Y001859D01*
X019684Y001810D01*
X019688Y001760D01*
X019688Y001710D01*
X019684Y001660D01*
X019676Y001611D01*
X019664Y001562D01*
X019648Y001514D01*
X019629Y001468D01*
X019606Y001424D01*
X019579Y001381D01*
X019549Y001341D01*
X019517Y001303D01*
X019481Y001268D01*
X019442Y001236D01*
X019401Y001207D01*
X019358Y001181D01*
X019313Y001159D01*
X019267Y001141D01*
X019219Y001126D01*
X019170Y001115D01*
X019121Y001108D01*
X019071Y001105D01*
X019020Y001106D01*
X018971Y001111D01*
X018921Y001120D01*
X018873Y001133D01*
X018826Y001149D01*
X018780Y001170D01*
X018736Y001194D01*
X018694Y001221D01*
X018654Y001251D01*
X018617Y001285D01*
X018583Y001322D01*
X018551Y001361D01*
X018523Y001402D01*
X018498Y001446D01*
X018477Y001491D01*
X018460Y001538D01*
X018446Y001586D01*
X018436Y001635D01*
X018430Y001685D01*
X018428Y001735D01*
X018428Y038743D02*
X018430Y038793D01*
X018436Y038843D01*
X018446Y038892D01*
X018460Y038940D01*
X018477Y038987D01*
X018498Y039032D01*
X018523Y039076D01*
X018551Y039117D01*
X018583Y039156D01*
X018617Y039193D01*
X018654Y039227D01*
X018694Y039257D01*
X018736Y039284D01*
X018780Y039308D01*
X018826Y039329D01*
X018873Y039345D01*
X018921Y039358D01*
X018971Y039367D01*
X019020Y039372D01*
X019071Y039373D01*
X019121Y039370D01*
X019170Y039363D01*
X019219Y039352D01*
X019267Y039337D01*
X019313Y039319D01*
X019358Y039297D01*
X019401Y039271D01*
X019442Y039242D01*
X019481Y039210D01*
X019517Y039175D01*
X019549Y039137D01*
X019579Y039097D01*
X019606Y039054D01*
X019629Y039010D01*
X019648Y038964D01*
X019664Y038916D01*
X019676Y038867D01*
X019684Y038818D01*
X019688Y038768D01*
X019688Y038718D01*
X019684Y038668D01*
X019676Y038619D01*
X019664Y038570D01*
X019648Y038522D01*
X019629Y038476D01*
X019606Y038432D01*
X019579Y038389D01*
X019549Y038349D01*
X019517Y038311D01*
X019481Y038276D01*
X019442Y038244D01*
X019401Y038215D01*
X019358Y038189D01*
X019313Y038167D01*
X019267Y038149D01*
X019219Y038134D01*
X019170Y038123D01*
X019121Y038116D01*
X019071Y038113D01*
X019020Y038114D01*
X018971Y038119D01*
X018921Y038128D01*
X018873Y038141D01*
X018826Y038157D01*
X018780Y038178D01*
X018736Y038202D01*
X018694Y038229D01*
X018654Y038259D01*
X018617Y038293D01*
X018583Y038330D01*
X018551Y038369D01*
X018523Y038410D01*
X018498Y038454D01*
X018477Y038499D01*
X018460Y038546D01*
X018446Y038594D01*
X018436Y038643D01*
X018430Y038693D01*
X018428Y038743D01*
X001105Y038743D02*
X001107Y038793D01*
X001113Y038843D01*
X001123Y038892D01*
X001137Y038940D01*
X001154Y038987D01*
X001175Y039032D01*
X001200Y039076D01*
X001228Y039117D01*
X001260Y039156D01*
X001294Y039193D01*
X001331Y039227D01*
X001371Y039257D01*
X001413Y039284D01*
X001457Y039308D01*
X001503Y039329D01*
X001550Y039345D01*
X001598Y039358D01*
X001648Y039367D01*
X001697Y039372D01*
X001748Y039373D01*
X001798Y039370D01*
X001847Y039363D01*
X001896Y039352D01*
X001944Y039337D01*
X001990Y039319D01*
X002035Y039297D01*
X002078Y039271D01*
X002119Y039242D01*
X002158Y039210D01*
X002194Y039175D01*
X002226Y039137D01*
X002256Y039097D01*
X002283Y039054D01*
X002306Y039010D01*
X002325Y038964D01*
X002341Y038916D01*
X002353Y038867D01*
X002361Y038818D01*
X002365Y038768D01*
X002365Y038718D01*
X002361Y038668D01*
X002353Y038619D01*
X002341Y038570D01*
X002325Y038522D01*
X002306Y038476D01*
X002283Y038432D01*
X002256Y038389D01*
X002226Y038349D01*
X002194Y038311D01*
X002158Y038276D01*
X002119Y038244D01*
X002078Y038215D01*
X002035Y038189D01*
X001990Y038167D01*
X001944Y038149D01*
X001896Y038134D01*
X001847Y038123D01*
X001798Y038116D01*
X001748Y038113D01*
X001697Y038114D01*
X001648Y038119D01*
X001598Y038128D01*
X001550Y038141D01*
X001503Y038157D01*
X001457Y038178D01*
X001413Y038202D01*
X001371Y038229D01*
X001331Y038259D01*
X001294Y038293D01*
X001260Y038330D01*
X001228Y038369D01*
X001200Y038410D01*
X001175Y038454D01*
X001154Y038499D01*
X001137Y038546D01*
X001123Y038594D01*
X001113Y038643D01*
X001107Y038693D01*
X001105Y038743D01*
D11*
X002917Y020239D02*
X017877Y020239D01*
D12*
X018861Y019255D02*
X013350Y019255D01*
X013350Y001539D01*
X019255Y001539D01*
X019255Y007444D01*
X001539Y007444D01*
X001539Y001539D01*
X007444Y001539D01*
X007444Y019255D01*
X001932Y019255D01*
X001932Y017169D01*
X001539Y017169D01*
X001539Y013350D01*
X019255Y013350D01*
X019255Y017169D01*
X018861Y017169D01*
X018861Y019255D01*
X018861Y021224D02*
X018861Y023271D01*
X019255Y023271D01*
X019255Y027129D01*
X001539Y027129D01*
X001539Y023271D01*
X001932Y023271D01*
X001932Y021224D01*
X007444Y021224D01*
X007444Y038940D01*
X001539Y038940D01*
X001539Y033035D01*
X019255Y033035D01*
X019255Y038940D01*
X013350Y038940D01*
X013350Y021224D01*
X018861Y021224D01*
X019255Y027129D02*
X019255Y033035D01*
X013350Y038940D02*
X007444Y038940D01*
X001539Y033035D02*
X001539Y027129D01*
X007444Y021224D02*
X013350Y021224D01*
X013350Y019255D02*
X007444Y019255D01*
X001539Y013350D02*
X001539Y007444D01*
X007444Y001539D02*
X013350Y001539D01*
X019255Y007444D02*
X019255Y013350D01*
D13*
X017305Y011552D02*
X017307Y011566D01*
X017313Y011580D01*
X017321Y011592D01*
X017333Y011600D01*
X017347Y011606D01*
X017361Y011608D01*
X017375Y011606D01*
X017389Y011600D01*
X017401Y011592D01*
X017409Y011580D01*
X017415Y011566D01*
X017417Y011552D01*
X017415Y011538D01*
X017409Y011524D01*
X017401Y011512D01*
X017389Y011504D01*
X017375Y011498D01*
X017361Y011496D01*
X017347Y011498D01*
X017333Y011504D01*
X017321Y011512D01*
X017313Y011524D01*
X017307Y011538D01*
X017305Y011552D01*
X017287Y011381D02*
X017287Y010987D01*
X016893Y011381D01*
X017287Y011381D01*
X017287Y010987D02*
X017287Y009413D01*
X015318Y009413D01*
X015318Y011381D01*
X016893Y011381D01*
X015475Y010397D02*
X015477Y010454D01*
X015483Y010511D01*
X015493Y010567D01*
X015506Y010623D01*
X015524Y010677D01*
X015545Y010730D01*
X015570Y010781D01*
X015598Y010831D01*
X015630Y010878D01*
X015664Y010924D01*
X015702Y010966D01*
X015743Y011006D01*
X015786Y011044D01*
X015832Y011078D01*
X015880Y011108D01*
X015930Y011136D01*
X015982Y011160D01*
X016036Y011180D01*
X016090Y011196D01*
X016146Y011209D01*
X016202Y011218D01*
X016259Y011223D01*
X016316Y011224D01*
X016373Y011221D01*
X016430Y011214D01*
X016486Y011203D01*
X016541Y011189D01*
X016595Y011170D01*
X016648Y011148D01*
X016699Y011123D01*
X016748Y011093D01*
X016795Y011061D01*
X016840Y011025D01*
X016882Y010987D01*
X016921Y010945D01*
X016957Y010901D01*
X016991Y010855D01*
X017021Y010806D01*
X017047Y010756D01*
X017070Y010704D01*
X017089Y010650D01*
X017105Y010595D01*
X017117Y010539D01*
X017125Y010482D01*
X017129Y010426D01*
X017129Y010368D01*
X017125Y010312D01*
X017117Y010255D01*
X017105Y010199D01*
X017089Y010144D01*
X017070Y010090D01*
X017047Y010038D01*
X017021Y009988D01*
X016991Y009939D01*
X016957Y009893D01*
X016921Y009849D01*
X016882Y009807D01*
X016840Y009769D01*
X016795Y009733D01*
X016748Y009701D01*
X016699Y009671D01*
X016648Y009646D01*
X016595Y009624D01*
X016541Y009605D01*
X016486Y009591D01*
X016430Y009580D01*
X016373Y009573D01*
X016316Y009570D01*
X016259Y009571D01*
X016202Y009576D01*
X016146Y009585D01*
X016090Y009598D01*
X016036Y009614D01*
X015982Y009634D01*
X015930Y009658D01*
X015880Y009686D01*
X015832Y009716D01*
X015786Y009750D01*
X015743Y009788D01*
X015702Y009828D01*
X015664Y009870D01*
X015630Y009916D01*
X015598Y009963D01*
X015570Y010013D01*
X015545Y010064D01*
X015524Y010117D01*
X015506Y010171D01*
X015493Y010227D01*
X015483Y010283D01*
X015477Y010340D01*
X015475Y010397D01*
X015318Y015318D02*
X017287Y015318D01*
X017287Y016893D01*
X016893Y017287D01*
X017287Y017287D01*
X017287Y016893D01*
X016893Y017287D02*
X015318Y017287D01*
X015318Y015318D01*
X015475Y016302D02*
X015477Y016359D01*
X015483Y016416D01*
X015493Y016472D01*
X015506Y016528D01*
X015524Y016582D01*
X015545Y016635D01*
X015570Y016686D01*
X015598Y016736D01*
X015630Y016783D01*
X015664Y016829D01*
X015702Y016871D01*
X015743Y016911D01*
X015786Y016949D01*
X015832Y016983D01*
X015880Y017013D01*
X015930Y017041D01*
X015982Y017065D01*
X016036Y017085D01*
X016090Y017101D01*
X016146Y017114D01*
X016202Y017123D01*
X016259Y017128D01*
X016316Y017129D01*
X016373Y017126D01*
X016430Y017119D01*
X016486Y017108D01*
X016541Y017094D01*
X016595Y017075D01*
X016648Y017053D01*
X016699Y017028D01*
X016748Y016998D01*
X016795Y016966D01*
X016840Y016930D01*
X016882Y016892D01*
X016921Y016850D01*
X016957Y016806D01*
X016991Y016760D01*
X017021Y016711D01*
X017047Y016661D01*
X017070Y016609D01*
X017089Y016555D01*
X017105Y016500D01*
X017117Y016444D01*
X017125Y016387D01*
X017129Y016331D01*
X017129Y016273D01*
X017125Y016217D01*
X017117Y016160D01*
X017105Y016104D01*
X017089Y016049D01*
X017070Y015995D01*
X017047Y015943D01*
X017021Y015893D01*
X016991Y015844D01*
X016957Y015798D01*
X016921Y015754D01*
X016882Y015712D01*
X016840Y015674D01*
X016795Y015638D01*
X016748Y015606D01*
X016699Y015576D01*
X016648Y015551D01*
X016595Y015529D01*
X016541Y015510D01*
X016486Y015496D01*
X016430Y015485D01*
X016373Y015478D01*
X016316Y015475D01*
X016259Y015476D01*
X016202Y015481D01*
X016146Y015490D01*
X016090Y015503D01*
X016036Y015519D01*
X015982Y015539D01*
X015930Y015563D01*
X015880Y015591D01*
X015832Y015621D01*
X015786Y015655D01*
X015743Y015693D01*
X015702Y015733D01*
X015664Y015775D01*
X015630Y015821D01*
X015598Y015868D01*
X015570Y015918D01*
X015545Y015969D01*
X015524Y016022D01*
X015506Y016076D01*
X015493Y016132D01*
X015483Y016188D01*
X015477Y016245D01*
X015475Y016302D01*
X017305Y017457D02*
X017307Y017471D01*
X017313Y017485D01*
X017321Y017497D01*
X017333Y017505D01*
X017347Y017511D01*
X017361Y017513D01*
X017375Y017511D01*
X017389Y017505D01*
X017401Y017497D01*
X017409Y017485D01*
X017415Y017471D01*
X017417Y017457D01*
X017415Y017443D01*
X017409Y017429D01*
X017401Y017417D01*
X017389Y017409D01*
X017375Y017403D01*
X017361Y017401D01*
X017347Y017403D01*
X017333Y017409D01*
X017321Y017417D01*
X017313Y017429D01*
X017307Y017443D01*
X017305Y017457D01*
X015188Y023021D02*
X015190Y023035D01*
X015196Y023049D01*
X015204Y023061D01*
X015216Y023069D01*
X015230Y023075D01*
X015244Y023077D01*
X015258Y023075D01*
X015272Y023069D01*
X015284Y023061D01*
X015292Y023049D01*
X015298Y023035D01*
X015300Y023021D01*
X015298Y023007D01*
X015292Y022993D01*
X015284Y022981D01*
X015272Y022973D01*
X015258Y022967D01*
X015244Y022965D01*
X015230Y022967D01*
X015216Y022973D01*
X015204Y022981D01*
X015196Y022993D01*
X015190Y023007D01*
X015188Y023021D01*
X015318Y023192D02*
X015318Y023586D01*
X015712Y023192D01*
X015318Y023192D01*
X015318Y023586D02*
X015318Y025161D01*
X017287Y025161D01*
X017287Y023192D01*
X015712Y023192D01*
X015475Y024176D02*
X015477Y024233D01*
X015483Y024290D01*
X015493Y024346D01*
X015506Y024402D01*
X015524Y024456D01*
X015545Y024509D01*
X015570Y024560D01*
X015598Y024610D01*
X015630Y024657D01*
X015664Y024703D01*
X015702Y024745D01*
X015743Y024785D01*
X015786Y024823D01*
X015832Y024857D01*
X015880Y024887D01*
X015930Y024915D01*
X015982Y024939D01*
X016036Y024959D01*
X016090Y024975D01*
X016146Y024988D01*
X016202Y024997D01*
X016259Y025002D01*
X016316Y025003D01*
X016373Y025000D01*
X016430Y024993D01*
X016486Y024982D01*
X016541Y024968D01*
X016595Y024949D01*
X016648Y024927D01*
X016699Y024902D01*
X016748Y024872D01*
X016795Y024840D01*
X016840Y024804D01*
X016882Y024766D01*
X016921Y024724D01*
X016957Y024680D01*
X016991Y024634D01*
X017021Y024585D01*
X017047Y024535D01*
X017070Y024483D01*
X017089Y024429D01*
X017105Y024374D01*
X017117Y024318D01*
X017125Y024261D01*
X017129Y024205D01*
X017129Y024147D01*
X017125Y024091D01*
X017117Y024034D01*
X017105Y023978D01*
X017089Y023923D01*
X017070Y023869D01*
X017047Y023817D01*
X017021Y023767D01*
X016991Y023718D01*
X016957Y023672D01*
X016921Y023628D01*
X016882Y023586D01*
X016840Y023548D01*
X016795Y023512D01*
X016748Y023480D01*
X016699Y023450D01*
X016648Y023425D01*
X016595Y023403D01*
X016541Y023384D01*
X016486Y023370D01*
X016430Y023359D01*
X016373Y023352D01*
X016316Y023349D01*
X016259Y023350D01*
X016202Y023355D01*
X016146Y023364D01*
X016090Y023377D01*
X016036Y023393D01*
X015982Y023413D01*
X015930Y023437D01*
X015880Y023465D01*
X015832Y023495D01*
X015786Y023529D01*
X015743Y023567D01*
X015702Y023607D01*
X015664Y023649D01*
X015630Y023695D01*
X015598Y023742D01*
X015570Y023792D01*
X015545Y023843D01*
X015524Y023896D01*
X015506Y023950D01*
X015493Y024006D01*
X015483Y024062D01*
X015477Y024119D01*
X015475Y024176D01*
X015188Y028927D02*
X015190Y028941D01*
X015196Y028955D01*
X015204Y028967D01*
X015216Y028975D01*
X015230Y028981D01*
X015244Y028983D01*
X015258Y028981D01*
X015272Y028975D01*
X015284Y028967D01*
X015292Y028955D01*
X015298Y028941D01*
X015300Y028927D01*
X015298Y028913D01*
X015292Y028899D01*
X015284Y028887D01*
X015272Y028879D01*
X015258Y028873D01*
X015244Y028871D01*
X015230Y028873D01*
X015216Y028879D01*
X015204Y028887D01*
X015196Y028899D01*
X015190Y028913D01*
X015188Y028927D01*
X015318Y029098D02*
X015318Y029491D01*
X015712Y029098D01*
X015318Y029098D01*
X015318Y029491D02*
X015318Y031066D01*
X017287Y031066D01*
X017287Y029098D01*
X015712Y029098D01*
X015475Y030082D02*
X015477Y030139D01*
X015483Y030196D01*
X015493Y030252D01*
X015506Y030308D01*
X015524Y030362D01*
X015545Y030415D01*
X015570Y030466D01*
X015598Y030516D01*
X015630Y030563D01*
X015664Y030609D01*
X015702Y030651D01*
X015743Y030691D01*
X015786Y030729D01*
X015832Y030763D01*
X015880Y030793D01*
X015930Y030821D01*
X015982Y030845D01*
X016036Y030865D01*
X016090Y030881D01*
X016146Y030894D01*
X016202Y030903D01*
X016259Y030908D01*
X016316Y030909D01*
X016373Y030906D01*
X016430Y030899D01*
X016486Y030888D01*
X016541Y030874D01*
X016595Y030855D01*
X016648Y030833D01*
X016699Y030808D01*
X016748Y030778D01*
X016795Y030746D01*
X016840Y030710D01*
X016882Y030672D01*
X016921Y030630D01*
X016957Y030586D01*
X016991Y030540D01*
X017021Y030491D01*
X017047Y030441D01*
X017070Y030389D01*
X017089Y030335D01*
X017105Y030280D01*
X017117Y030224D01*
X017125Y030167D01*
X017129Y030111D01*
X017129Y030053D01*
X017125Y029997D01*
X017117Y029940D01*
X017105Y029884D01*
X017089Y029829D01*
X017070Y029775D01*
X017047Y029723D01*
X017021Y029673D01*
X016991Y029624D01*
X016957Y029578D01*
X016921Y029534D01*
X016882Y029492D01*
X016840Y029454D01*
X016795Y029418D01*
X016748Y029386D01*
X016699Y029356D01*
X016648Y029331D01*
X016595Y029309D01*
X016541Y029290D01*
X016486Y029276D01*
X016430Y029265D01*
X016373Y029258D01*
X016316Y029255D01*
X016259Y029256D01*
X016202Y029261D01*
X016146Y029270D01*
X016090Y029283D01*
X016036Y029299D01*
X015982Y029319D01*
X015930Y029343D01*
X015880Y029371D01*
X015832Y029401D01*
X015786Y029435D01*
X015743Y029473D01*
X015702Y029513D01*
X015664Y029555D01*
X015630Y029601D01*
X015598Y029648D01*
X015570Y029698D01*
X015545Y029749D01*
X015524Y029802D01*
X015506Y029856D01*
X015493Y029912D01*
X015483Y029968D01*
X015477Y030025D01*
X015475Y030082D01*
X015188Y034832D02*
X015190Y034846D01*
X015196Y034860D01*
X015204Y034872D01*
X015216Y034880D01*
X015230Y034886D01*
X015244Y034888D01*
X015258Y034886D01*
X015272Y034880D01*
X015284Y034872D01*
X015292Y034860D01*
X015298Y034846D01*
X015300Y034832D01*
X015298Y034818D01*
X015292Y034804D01*
X015284Y034792D01*
X015272Y034784D01*
X015258Y034778D01*
X015244Y034776D01*
X015230Y034778D01*
X015216Y034784D01*
X015204Y034792D01*
X015196Y034804D01*
X015190Y034818D01*
X015188Y034832D01*
X015318Y035003D02*
X015318Y035397D01*
X015712Y035003D01*
X015318Y035003D01*
X015318Y035397D02*
X015318Y036972D01*
X017287Y036972D01*
X017287Y035003D01*
X015712Y035003D01*
X015475Y035987D02*
X015477Y036044D01*
X015483Y036101D01*
X015493Y036157D01*
X015506Y036213D01*
X015524Y036267D01*
X015545Y036320D01*
X015570Y036371D01*
X015598Y036421D01*
X015630Y036468D01*
X015664Y036514D01*
X015702Y036556D01*
X015743Y036596D01*
X015786Y036634D01*
X015832Y036668D01*
X015880Y036698D01*
X015930Y036726D01*
X015982Y036750D01*
X016036Y036770D01*
X016090Y036786D01*
X016146Y036799D01*
X016202Y036808D01*
X016259Y036813D01*
X016316Y036814D01*
X016373Y036811D01*
X016430Y036804D01*
X016486Y036793D01*
X016541Y036779D01*
X016595Y036760D01*
X016648Y036738D01*
X016699Y036713D01*
X016748Y036683D01*
X016795Y036651D01*
X016840Y036615D01*
X016882Y036577D01*
X016921Y036535D01*
X016957Y036491D01*
X016991Y036445D01*
X017021Y036396D01*
X017047Y036346D01*
X017070Y036294D01*
X017089Y036240D01*
X017105Y036185D01*
X017117Y036129D01*
X017125Y036072D01*
X017129Y036016D01*
X017129Y035958D01*
X017125Y035902D01*
X017117Y035845D01*
X017105Y035789D01*
X017089Y035734D01*
X017070Y035680D01*
X017047Y035628D01*
X017021Y035578D01*
X016991Y035529D01*
X016957Y035483D01*
X016921Y035439D01*
X016882Y035397D01*
X016840Y035359D01*
X016795Y035323D01*
X016748Y035291D01*
X016699Y035261D01*
X016648Y035236D01*
X016595Y035214D01*
X016541Y035195D01*
X016486Y035181D01*
X016430Y035170D01*
X016373Y035163D01*
X016316Y035160D01*
X016259Y035161D01*
X016202Y035166D01*
X016146Y035175D01*
X016090Y035188D01*
X016036Y035204D01*
X015982Y035224D01*
X015930Y035248D01*
X015880Y035276D01*
X015832Y035306D01*
X015786Y035340D01*
X015743Y035378D01*
X015702Y035418D01*
X015664Y035460D01*
X015630Y035506D01*
X015598Y035553D01*
X015570Y035603D01*
X015545Y035654D01*
X015524Y035707D01*
X015506Y035761D01*
X015493Y035817D01*
X015483Y035873D01*
X015477Y035930D01*
X015475Y035987D01*
X011381Y031066D02*
X011381Y029098D01*
X009806Y029098D01*
X009413Y029491D01*
X009413Y031066D01*
X011381Y031066D01*
X009570Y030082D02*
X009572Y030139D01*
X009578Y030196D01*
X009588Y030252D01*
X009601Y030308D01*
X009619Y030362D01*
X009640Y030415D01*
X009665Y030466D01*
X009693Y030516D01*
X009725Y030563D01*
X009759Y030609D01*
X009797Y030651D01*
X009838Y030691D01*
X009881Y030729D01*
X009927Y030763D01*
X009975Y030793D01*
X010025Y030821D01*
X010077Y030845D01*
X010131Y030865D01*
X010185Y030881D01*
X010241Y030894D01*
X010297Y030903D01*
X010354Y030908D01*
X010411Y030909D01*
X010468Y030906D01*
X010525Y030899D01*
X010581Y030888D01*
X010636Y030874D01*
X010690Y030855D01*
X010743Y030833D01*
X010794Y030808D01*
X010843Y030778D01*
X010890Y030746D01*
X010935Y030710D01*
X010977Y030672D01*
X011016Y030630D01*
X011052Y030586D01*
X011086Y030540D01*
X011116Y030491D01*
X011142Y030441D01*
X011165Y030389D01*
X011184Y030335D01*
X011200Y030280D01*
X011212Y030224D01*
X011220Y030167D01*
X011224Y030111D01*
X011224Y030053D01*
X011220Y029997D01*
X011212Y029940D01*
X011200Y029884D01*
X011184Y029829D01*
X011165Y029775D01*
X011142Y029723D01*
X011116Y029673D01*
X011086Y029624D01*
X011052Y029578D01*
X011016Y029534D01*
X010977Y029492D01*
X010935Y029454D01*
X010890Y029418D01*
X010843Y029386D01*
X010794Y029356D01*
X010743Y029331D01*
X010690Y029309D01*
X010636Y029290D01*
X010581Y029276D01*
X010525Y029265D01*
X010468Y029258D01*
X010411Y029255D01*
X010354Y029256D01*
X010297Y029261D01*
X010241Y029270D01*
X010185Y029283D01*
X010131Y029299D01*
X010077Y029319D01*
X010025Y029343D01*
X009975Y029371D01*
X009927Y029401D01*
X009881Y029435D01*
X009838Y029473D01*
X009797Y029513D01*
X009759Y029555D01*
X009725Y029601D01*
X009693Y029648D01*
X009665Y029698D01*
X009640Y029749D01*
X009619Y029802D01*
X009601Y029856D01*
X009588Y029912D01*
X009578Y029968D01*
X009572Y030025D01*
X009570Y030082D01*
X009413Y029491D02*
X009413Y029098D01*
X009806Y029098D01*
X009283Y028927D02*
X009285Y028941D01*
X009291Y028955D01*
X009299Y028967D01*
X009311Y028975D01*
X009325Y028981D01*
X009339Y028983D01*
X009353Y028981D01*
X009367Y028975D01*
X009379Y028967D01*
X009387Y028955D01*
X009393Y028941D01*
X009395Y028927D01*
X009393Y028913D01*
X009387Y028899D01*
X009379Y028887D01*
X009367Y028879D01*
X009353Y028873D01*
X009339Y028871D01*
X009325Y028873D01*
X009311Y028879D01*
X009299Y028887D01*
X009291Y028899D01*
X009285Y028913D01*
X009283Y028927D01*
X005476Y029098D02*
X003901Y029098D01*
X003507Y029491D01*
X003507Y031066D01*
X005476Y031066D01*
X005476Y029098D01*
X003664Y030082D02*
X003666Y030139D01*
X003672Y030196D01*
X003682Y030252D01*
X003695Y030308D01*
X003713Y030362D01*
X003734Y030415D01*
X003759Y030466D01*
X003787Y030516D01*
X003819Y030563D01*
X003853Y030609D01*
X003891Y030651D01*
X003932Y030691D01*
X003975Y030729D01*
X004021Y030763D01*
X004069Y030793D01*
X004119Y030821D01*
X004171Y030845D01*
X004225Y030865D01*
X004279Y030881D01*
X004335Y030894D01*
X004391Y030903D01*
X004448Y030908D01*
X004505Y030909D01*
X004562Y030906D01*
X004619Y030899D01*
X004675Y030888D01*
X004730Y030874D01*
X004784Y030855D01*
X004837Y030833D01*
X004888Y030808D01*
X004937Y030778D01*
X004984Y030746D01*
X005029Y030710D01*
X005071Y030672D01*
X005110Y030630D01*
X005146Y030586D01*
X005180Y030540D01*
X005210Y030491D01*
X005236Y030441D01*
X005259Y030389D01*
X005278Y030335D01*
X005294Y030280D01*
X005306Y030224D01*
X005314Y030167D01*
X005318Y030111D01*
X005318Y030053D01*
X005314Y029997D01*
X005306Y029940D01*
X005294Y029884D01*
X005278Y029829D01*
X005259Y029775D01*
X005236Y029723D01*
X005210Y029673D01*
X005180Y029624D01*
X005146Y029578D01*
X005110Y029534D01*
X005071Y029492D01*
X005029Y029454D01*
X004984Y029418D01*
X004937Y029386D01*
X004888Y029356D01*
X004837Y029331D01*
X004784Y029309D01*
X004730Y029290D01*
X004675Y029276D01*
X004619Y029265D01*
X004562Y029258D01*
X004505Y029255D01*
X004448Y029256D01*
X004391Y029261D01*
X004335Y029270D01*
X004279Y029283D01*
X004225Y029299D01*
X004171Y029319D01*
X004119Y029343D01*
X004069Y029371D01*
X004021Y029401D01*
X003975Y029435D01*
X003932Y029473D01*
X003891Y029513D01*
X003853Y029555D01*
X003819Y029601D01*
X003787Y029648D01*
X003759Y029698D01*
X003734Y029749D01*
X003713Y029802D01*
X003695Y029856D01*
X003682Y029912D01*
X003672Y029968D01*
X003666Y030025D01*
X003664Y030082D01*
X003507Y029491D02*
X003507Y029098D01*
X003901Y029098D01*
X003377Y028927D02*
X003379Y028941D01*
X003385Y028955D01*
X003393Y028967D01*
X003405Y028975D01*
X003419Y028981D01*
X003433Y028983D01*
X003447Y028981D01*
X003461Y028975D01*
X003473Y028967D01*
X003481Y028955D01*
X003487Y028941D01*
X003489Y028927D01*
X003487Y028913D01*
X003481Y028899D01*
X003473Y028887D01*
X003461Y028879D01*
X003447Y028873D01*
X003433Y028871D01*
X003419Y028873D01*
X003405Y028879D01*
X003393Y028887D01*
X003385Y028899D01*
X003379Y028913D01*
X003377Y028927D01*
X003507Y025161D02*
X005476Y025161D01*
X005476Y023192D01*
X003901Y023192D01*
X003507Y023586D01*
X003507Y025161D01*
X003507Y023586D02*
X003507Y023192D01*
X003901Y023192D01*
X003377Y023021D02*
X003379Y023035D01*
X003385Y023049D01*
X003393Y023061D01*
X003405Y023069D01*
X003419Y023075D01*
X003433Y023077D01*
X003447Y023075D01*
X003461Y023069D01*
X003473Y023061D01*
X003481Y023049D01*
X003487Y023035D01*
X003489Y023021D01*
X003487Y023007D01*
X003481Y022993D01*
X003473Y022981D01*
X003461Y022973D01*
X003447Y022967D01*
X003433Y022965D01*
X003419Y022967D01*
X003405Y022973D01*
X003393Y022981D01*
X003385Y022993D01*
X003379Y023007D01*
X003377Y023021D01*
X003664Y024176D02*
X003666Y024233D01*
X003672Y024290D01*
X003682Y024346D01*
X003695Y024402D01*
X003713Y024456D01*
X003734Y024509D01*
X003759Y024560D01*
X003787Y024610D01*
X003819Y024657D01*
X003853Y024703D01*
X003891Y024745D01*
X003932Y024785D01*
X003975Y024823D01*
X004021Y024857D01*
X004069Y024887D01*
X004119Y024915D01*
X004171Y024939D01*
X004225Y024959D01*
X004279Y024975D01*
X004335Y024988D01*
X004391Y024997D01*
X004448Y025002D01*
X004505Y025003D01*
X004562Y025000D01*
X004619Y024993D01*
X004675Y024982D01*
X004730Y024968D01*
X004784Y024949D01*
X004837Y024927D01*
X004888Y024902D01*
X004937Y024872D01*
X004984Y024840D01*
X005029Y024804D01*
X005071Y024766D01*
X005110Y024724D01*
X005146Y024680D01*
X005180Y024634D01*
X005210Y024585D01*
X005236Y024535D01*
X005259Y024483D01*
X005278Y024429D01*
X005294Y024374D01*
X005306Y024318D01*
X005314Y024261D01*
X005318Y024205D01*
X005318Y024147D01*
X005314Y024091D01*
X005306Y024034D01*
X005294Y023978D01*
X005278Y023923D01*
X005259Y023869D01*
X005236Y023817D01*
X005210Y023767D01*
X005180Y023718D01*
X005146Y023672D01*
X005110Y023628D01*
X005071Y023586D01*
X005029Y023548D01*
X004984Y023512D01*
X004937Y023480D01*
X004888Y023450D01*
X004837Y023425D01*
X004784Y023403D01*
X004730Y023384D01*
X004675Y023370D01*
X004619Y023359D01*
X004562Y023352D01*
X004505Y023349D01*
X004448Y023350D01*
X004391Y023355D01*
X004335Y023364D01*
X004279Y023377D01*
X004225Y023393D01*
X004171Y023413D01*
X004119Y023437D01*
X004069Y023465D01*
X004021Y023495D01*
X003975Y023529D01*
X003932Y023567D01*
X003891Y023607D01*
X003853Y023649D01*
X003819Y023695D01*
X003787Y023742D01*
X003759Y023792D01*
X003734Y023843D01*
X003713Y023896D01*
X003695Y023950D01*
X003682Y024006D01*
X003672Y024062D01*
X003666Y024119D01*
X003664Y024176D01*
X005494Y017457D02*
X005496Y017471D01*
X005502Y017485D01*
X005510Y017497D01*
X005522Y017505D01*
X005536Y017511D01*
X005550Y017513D01*
X005564Y017511D01*
X005578Y017505D01*
X005590Y017497D01*
X005598Y017485D01*
X005604Y017471D01*
X005606Y017457D01*
X005604Y017443D01*
X005598Y017429D01*
X005590Y017417D01*
X005578Y017409D01*
X005564Y017403D01*
X005550Y017401D01*
X005536Y017403D01*
X005522Y017409D01*
X005510Y017417D01*
X005502Y017429D01*
X005496Y017443D01*
X005494Y017457D01*
X005476Y017287D02*
X005476Y016893D01*
X005082Y017287D01*
X005476Y017287D01*
X005476Y016893D02*
X005476Y015318D01*
X003507Y015318D01*
X003507Y017287D01*
X005082Y017287D01*
X003664Y016302D02*
X003666Y016359D01*
X003672Y016416D01*
X003682Y016472D01*
X003695Y016528D01*
X003713Y016582D01*
X003734Y016635D01*
X003759Y016686D01*
X003787Y016736D01*
X003819Y016783D01*
X003853Y016829D01*
X003891Y016871D01*
X003932Y016911D01*
X003975Y016949D01*
X004021Y016983D01*
X004069Y017013D01*
X004119Y017041D01*
X004171Y017065D01*
X004225Y017085D01*
X004279Y017101D01*
X004335Y017114D01*
X004391Y017123D01*
X004448Y017128D01*
X004505Y017129D01*
X004562Y017126D01*
X004619Y017119D01*
X004675Y017108D01*
X004730Y017094D01*
X004784Y017075D01*
X004837Y017053D01*
X004888Y017028D01*
X004937Y016998D01*
X004984Y016966D01*
X005029Y016930D01*
X005071Y016892D01*
X005110Y016850D01*
X005146Y016806D01*
X005180Y016760D01*
X005210Y016711D01*
X005236Y016661D01*
X005259Y016609D01*
X005278Y016555D01*
X005294Y016500D01*
X005306Y016444D01*
X005314Y016387D01*
X005318Y016331D01*
X005318Y016273D01*
X005314Y016217D01*
X005306Y016160D01*
X005294Y016104D01*
X005278Y016049D01*
X005259Y015995D01*
X005236Y015943D01*
X005210Y015893D01*
X005180Y015844D01*
X005146Y015798D01*
X005110Y015754D01*
X005071Y015712D01*
X005029Y015674D01*
X004984Y015638D01*
X004937Y015606D01*
X004888Y015576D01*
X004837Y015551D01*
X004784Y015529D01*
X004730Y015510D01*
X004675Y015496D01*
X004619Y015485D01*
X004562Y015478D01*
X004505Y015475D01*
X004448Y015476D01*
X004391Y015481D01*
X004335Y015490D01*
X004279Y015503D01*
X004225Y015519D01*
X004171Y015539D01*
X004119Y015563D01*
X004069Y015591D01*
X004021Y015621D01*
X003975Y015655D01*
X003932Y015693D01*
X003891Y015733D01*
X003853Y015775D01*
X003819Y015821D01*
X003787Y015868D01*
X003759Y015918D01*
X003734Y015969D01*
X003713Y016022D01*
X003695Y016076D01*
X003682Y016132D01*
X003672Y016188D01*
X003666Y016245D01*
X003664Y016302D01*
X003507Y011381D02*
X005082Y011381D01*
X005476Y010987D01*
X005476Y009413D01*
X003507Y009413D01*
X003507Y011381D01*
X003664Y010397D02*
X003666Y010454D01*
X003672Y010511D01*
X003682Y010567D01*
X003695Y010623D01*
X003713Y010677D01*
X003734Y010730D01*
X003759Y010781D01*
X003787Y010831D01*
X003819Y010878D01*
X003853Y010924D01*
X003891Y010966D01*
X003932Y011006D01*
X003975Y011044D01*
X004021Y011078D01*
X004069Y011108D01*
X004119Y011136D01*
X004171Y011160D01*
X004225Y011180D01*
X004279Y011196D01*
X004335Y011209D01*
X004391Y011218D01*
X004448Y011223D01*
X004505Y011224D01*
X004562Y011221D01*
X004619Y011214D01*
X004675Y011203D01*
X004730Y011189D01*
X004784Y011170D01*
X004837Y011148D01*
X004888Y011123D01*
X004937Y011093D01*
X004984Y011061D01*
X005029Y011025D01*
X005071Y010987D01*
X005110Y010945D01*
X005146Y010901D01*
X005180Y010855D01*
X005210Y010806D01*
X005236Y010756D01*
X005259Y010704D01*
X005278Y010650D01*
X005294Y010595D01*
X005306Y010539D01*
X005314Y010482D01*
X005318Y010426D01*
X005318Y010368D01*
X005314Y010312D01*
X005306Y010255D01*
X005294Y010199D01*
X005278Y010144D01*
X005259Y010090D01*
X005236Y010038D01*
X005210Y009988D01*
X005180Y009939D01*
X005146Y009893D01*
X005110Y009849D01*
X005071Y009807D01*
X005029Y009769D01*
X004984Y009733D01*
X004937Y009701D01*
X004888Y009671D01*
X004837Y009646D01*
X004784Y009624D01*
X004730Y009605D01*
X004675Y009591D01*
X004619Y009580D01*
X004562Y009573D01*
X004505Y009570D01*
X004448Y009571D01*
X004391Y009576D01*
X004335Y009585D01*
X004279Y009598D01*
X004225Y009614D01*
X004171Y009634D01*
X004119Y009658D01*
X004069Y009686D01*
X004021Y009716D01*
X003975Y009750D01*
X003932Y009788D01*
X003891Y009828D01*
X003853Y009870D01*
X003819Y009916D01*
X003787Y009963D01*
X003759Y010013D01*
X003734Y010064D01*
X003713Y010117D01*
X003695Y010171D01*
X003682Y010227D01*
X003672Y010283D01*
X003666Y010340D01*
X003664Y010397D01*
X005082Y011381D02*
X005476Y011381D01*
X005476Y010987D01*
X005494Y011552D02*
X005496Y011566D01*
X005502Y011580D01*
X005510Y011592D01*
X005522Y011600D01*
X005536Y011606D01*
X005550Y011608D01*
X005564Y011606D01*
X005578Y011600D01*
X005590Y011592D01*
X005598Y011580D01*
X005604Y011566D01*
X005606Y011552D01*
X005604Y011538D01*
X005598Y011524D01*
X005590Y011512D01*
X005578Y011504D01*
X005564Y011498D01*
X005550Y011496D01*
X005536Y011498D01*
X005522Y011504D01*
X005510Y011512D01*
X005502Y011524D01*
X005496Y011538D01*
X005494Y011552D01*
X005494Y005646D02*
X005496Y005660D01*
X005502Y005674D01*
X005510Y005686D01*
X005522Y005694D01*
X005536Y005700D01*
X005550Y005702D01*
X005564Y005700D01*
X005578Y005694D01*
X005590Y005686D01*
X005598Y005674D01*
X005604Y005660D01*
X005606Y005646D01*
X005604Y005632D01*
X005598Y005618D01*
X005590Y005606D01*
X005578Y005598D01*
X005564Y005592D01*
X005550Y005590D01*
X005536Y005592D01*
X005522Y005598D01*
X005510Y005606D01*
X005502Y005618D01*
X005496Y005632D01*
X005494Y005646D01*
X005476Y005476D02*
X005476Y005082D01*
X005082Y005476D01*
X005476Y005476D01*
X005476Y005082D02*
X005476Y003507D01*
X003507Y003507D01*
X003507Y005476D01*
X005082Y005476D01*
X003664Y004491D02*
X003666Y004548D01*
X003672Y004605D01*
X003682Y004661D01*
X003695Y004717D01*
X003713Y004771D01*
X003734Y004824D01*
X003759Y004875D01*
X003787Y004925D01*
X003819Y004972D01*
X003853Y005018D01*
X003891Y005060D01*
X003932Y005100D01*
X003975Y005138D01*
X004021Y005172D01*
X004069Y005202D01*
X004119Y005230D01*
X004171Y005254D01*
X004225Y005274D01*
X004279Y005290D01*
X004335Y005303D01*
X004391Y005312D01*
X004448Y005317D01*
X004505Y005318D01*
X004562Y005315D01*
X004619Y005308D01*
X004675Y005297D01*
X004730Y005283D01*
X004784Y005264D01*
X004837Y005242D01*
X004888Y005217D01*
X004937Y005187D01*
X004984Y005155D01*
X005029Y005119D01*
X005071Y005081D01*
X005110Y005039D01*
X005146Y004995D01*
X005180Y004949D01*
X005210Y004900D01*
X005236Y004850D01*
X005259Y004798D01*
X005278Y004744D01*
X005294Y004689D01*
X005306Y004633D01*
X005314Y004576D01*
X005318Y004520D01*
X005318Y004462D01*
X005314Y004406D01*
X005306Y004349D01*
X005294Y004293D01*
X005278Y004238D01*
X005259Y004184D01*
X005236Y004132D01*
X005210Y004082D01*
X005180Y004033D01*
X005146Y003987D01*
X005110Y003943D01*
X005071Y003901D01*
X005029Y003863D01*
X004984Y003827D01*
X004937Y003795D01*
X004888Y003765D01*
X004837Y003740D01*
X004784Y003718D01*
X004730Y003699D01*
X004675Y003685D01*
X004619Y003674D01*
X004562Y003667D01*
X004505Y003664D01*
X004448Y003665D01*
X004391Y003670D01*
X004335Y003679D01*
X004279Y003692D01*
X004225Y003708D01*
X004171Y003728D01*
X004119Y003752D01*
X004069Y003780D01*
X004021Y003810D01*
X003975Y003844D01*
X003932Y003882D01*
X003891Y003922D01*
X003853Y003964D01*
X003819Y004010D01*
X003787Y004057D01*
X003759Y004107D01*
X003734Y004158D01*
X003713Y004211D01*
X003695Y004265D01*
X003682Y004321D01*
X003672Y004377D01*
X003666Y004434D01*
X003664Y004491D01*
X008453Y002052D02*
X008453Y001819D01*
X008512Y001760D01*
X008628Y001760D01*
X008687Y001819D01*
X008687Y002052D01*
X008628Y002111D01*
X008512Y002111D01*
X008453Y002052D01*
X008822Y002111D02*
X008822Y001760D01*
X008822Y001877D02*
X008997Y001877D01*
X009055Y001936D01*
X009055Y002052D01*
X008997Y002111D01*
X008822Y002111D01*
X008938Y001877D02*
X009055Y001760D01*
X009190Y001760D02*
X009190Y002111D01*
X009365Y002111D01*
X009423Y002052D01*
X009423Y001819D01*
X009365Y001760D01*
X009190Y001760D01*
X009558Y001760D02*
X009558Y002111D01*
X009792Y002111D01*
X009927Y002111D02*
X010102Y002111D01*
X010160Y002052D01*
X010160Y001936D01*
X010102Y001877D01*
X009927Y001877D01*
X010043Y001877D02*
X010160Y001760D01*
X009927Y001760D02*
X009927Y002111D01*
X009675Y001936D02*
X009558Y001936D01*
X009558Y001760D02*
X009792Y001760D01*
X010663Y001819D02*
X010722Y001760D01*
X010838Y001760D01*
X010897Y001819D01*
X010897Y001936D01*
X010838Y001994D01*
X010780Y001994D01*
X010663Y001936D01*
X010663Y002111D01*
X010897Y002111D01*
X011031Y001994D02*
X011148Y002111D01*
X011148Y001760D01*
X011031Y001760D02*
X011265Y001760D01*
X011400Y001819D02*
X011458Y001760D01*
X011575Y001760D01*
X011633Y001819D01*
X011633Y001936D01*
X011575Y001994D01*
X011517Y001994D01*
X011400Y001936D01*
X011400Y002111D01*
X011633Y002111D01*
X011768Y002052D02*
X011826Y002111D01*
X011943Y002111D01*
X012002Y002052D01*
X012002Y001994D01*
X011768Y001760D01*
X012002Y001760D01*
X012136Y001760D02*
X012136Y001819D01*
X012370Y002052D01*
X012370Y002111D01*
X012136Y002111D01*
X015318Y003507D02*
X017287Y003507D01*
X017287Y005082D01*
X016893Y005476D01*
X017287Y005476D01*
X017287Y005082D01*
X017305Y005646D02*
X017307Y005660D01*
X017313Y005674D01*
X017321Y005686D01*
X017333Y005694D01*
X017347Y005700D01*
X017361Y005702D01*
X017375Y005700D01*
X017389Y005694D01*
X017401Y005686D01*
X017409Y005674D01*
X017415Y005660D01*
X017417Y005646D01*
X017415Y005632D01*
X017409Y005618D01*
X017401Y005606D01*
X017389Y005598D01*
X017375Y005592D01*
X017361Y005590D01*
X017347Y005592D01*
X017333Y005598D01*
X017321Y005606D01*
X017313Y005618D01*
X017307Y005632D01*
X017305Y005646D01*
X016893Y005476D02*
X015318Y005476D01*
X015318Y003507D01*
X015475Y004491D02*
X015477Y004548D01*
X015483Y004605D01*
X015493Y004661D01*
X015506Y004717D01*
X015524Y004771D01*
X015545Y004824D01*
X015570Y004875D01*
X015598Y004925D01*
X015630Y004972D01*
X015664Y005018D01*
X015702Y005060D01*
X015743Y005100D01*
X015786Y005138D01*
X015832Y005172D01*
X015880Y005202D01*
X015930Y005230D01*
X015982Y005254D01*
X016036Y005274D01*
X016090Y005290D01*
X016146Y005303D01*
X016202Y005312D01*
X016259Y005317D01*
X016316Y005318D01*
X016373Y005315D01*
X016430Y005308D01*
X016486Y005297D01*
X016541Y005283D01*
X016595Y005264D01*
X016648Y005242D01*
X016699Y005217D01*
X016748Y005187D01*
X016795Y005155D01*
X016840Y005119D01*
X016882Y005081D01*
X016921Y005039D01*
X016957Y004995D01*
X016991Y004949D01*
X017021Y004900D01*
X017047Y004850D01*
X017070Y004798D01*
X017089Y004744D01*
X017105Y004689D01*
X017117Y004633D01*
X017125Y004576D01*
X017129Y004520D01*
X017129Y004462D01*
X017125Y004406D01*
X017117Y004349D01*
X017105Y004293D01*
X017089Y004238D01*
X017070Y004184D01*
X017047Y004132D01*
X017021Y004082D01*
X016991Y004033D01*
X016957Y003987D01*
X016921Y003943D01*
X016882Y003901D01*
X016840Y003863D01*
X016795Y003827D01*
X016748Y003795D01*
X016699Y003765D01*
X016648Y003740D01*
X016595Y003718D01*
X016541Y003699D01*
X016486Y003685D01*
X016430Y003674D01*
X016373Y003667D01*
X016316Y003664D01*
X016259Y003665D01*
X016202Y003670D01*
X016146Y003679D01*
X016090Y003692D01*
X016036Y003708D01*
X015982Y003728D01*
X015930Y003752D01*
X015880Y003780D01*
X015832Y003810D01*
X015786Y003844D01*
X015743Y003882D01*
X015702Y003922D01*
X015664Y003964D01*
X015630Y004010D01*
X015598Y004057D01*
X015570Y004107D01*
X015545Y004158D01*
X015524Y004211D01*
X015506Y004265D01*
X015493Y004321D01*
X015483Y004377D01*
X015477Y004434D01*
X015475Y004491D01*
X011399Y011552D02*
X011401Y011566D01*
X011407Y011580D01*
X011415Y011592D01*
X011427Y011600D01*
X011441Y011606D01*
X011455Y011608D01*
X011469Y011606D01*
X011483Y011600D01*
X011495Y011592D01*
X011503Y011580D01*
X011509Y011566D01*
X011511Y011552D01*
X011509Y011538D01*
X011503Y011524D01*
X011495Y011512D01*
X011483Y011504D01*
X011469Y011498D01*
X011455Y011496D01*
X011441Y011498D01*
X011427Y011504D01*
X011415Y011512D01*
X011407Y011524D01*
X011401Y011538D01*
X011399Y011552D01*
X011381Y011381D02*
X011381Y010987D01*
X010987Y011381D01*
X011381Y011381D01*
X011381Y010987D02*
X011381Y009413D01*
X009413Y009413D01*
X009413Y011381D01*
X010987Y011381D01*
X009570Y010397D02*
X009572Y010454D01*
X009578Y010511D01*
X009588Y010567D01*
X009601Y010623D01*
X009619Y010677D01*
X009640Y010730D01*
X009665Y010781D01*
X009693Y010831D01*
X009725Y010878D01*
X009759Y010924D01*
X009797Y010966D01*
X009838Y011006D01*
X009881Y011044D01*
X009927Y011078D01*
X009975Y011108D01*
X010025Y011136D01*
X010077Y011160D01*
X010131Y011180D01*
X010185Y011196D01*
X010241Y011209D01*
X010297Y011218D01*
X010354Y011223D01*
X010411Y011224D01*
X010468Y011221D01*
X010525Y011214D01*
X010581Y011203D01*
X010636Y011189D01*
X010690Y011170D01*
X010743Y011148D01*
X010794Y011123D01*
X010843Y011093D01*
X010890Y011061D01*
X010935Y011025D01*
X010977Y010987D01*
X011016Y010945D01*
X011052Y010901D01*
X011086Y010855D01*
X011116Y010806D01*
X011142Y010756D01*
X011165Y010704D01*
X011184Y010650D01*
X011200Y010595D01*
X011212Y010539D01*
X011220Y010482D01*
X011224Y010426D01*
X011224Y010368D01*
X011220Y010312D01*
X011212Y010255D01*
X011200Y010199D01*
X011184Y010144D01*
X011165Y010090D01*
X011142Y010038D01*
X011116Y009988D01*
X011086Y009939D01*
X011052Y009893D01*
X011016Y009849D01*
X010977Y009807D01*
X010935Y009769D01*
X010890Y009733D01*
X010843Y009701D01*
X010794Y009671D01*
X010743Y009646D01*
X010690Y009624D01*
X010636Y009605D01*
X010581Y009591D01*
X010525Y009580D01*
X010468Y009573D01*
X010411Y009570D01*
X010354Y009571D01*
X010297Y009576D01*
X010241Y009585D01*
X010185Y009598D01*
X010131Y009614D01*
X010077Y009634D01*
X010025Y009658D01*
X009975Y009686D01*
X009927Y009716D01*
X009881Y009750D01*
X009838Y009788D01*
X009797Y009828D01*
X009759Y009870D01*
X009725Y009916D01*
X009693Y009963D01*
X009665Y010013D01*
X009640Y010064D01*
X009619Y010117D01*
X009601Y010171D01*
X009588Y010227D01*
X009578Y010283D01*
X009572Y010340D01*
X009570Y010397D01*
X005476Y035003D02*
X003901Y035003D01*
X003507Y035397D01*
X003507Y036972D01*
X005476Y036972D01*
X005476Y035003D01*
X003664Y035987D02*
X003666Y036044D01*
X003672Y036101D01*
X003682Y036157D01*
X003695Y036213D01*
X003713Y036267D01*
X003734Y036320D01*
X003759Y036371D01*
X003787Y036421D01*
X003819Y036468D01*
X003853Y036514D01*
X003891Y036556D01*
X003932Y036596D01*
X003975Y036634D01*
X004021Y036668D01*
X004069Y036698D01*
X004119Y036726D01*
X004171Y036750D01*
X004225Y036770D01*
X004279Y036786D01*
X004335Y036799D01*
X004391Y036808D01*
X004448Y036813D01*
X004505Y036814D01*
X004562Y036811D01*
X004619Y036804D01*
X004675Y036793D01*
X004730Y036779D01*
X004784Y036760D01*
X004837Y036738D01*
X004888Y036713D01*
X004937Y036683D01*
X004984Y036651D01*
X005029Y036615D01*
X005071Y036577D01*
X005110Y036535D01*
X005146Y036491D01*
X005180Y036445D01*
X005210Y036396D01*
X005236Y036346D01*
X005259Y036294D01*
X005278Y036240D01*
X005294Y036185D01*
X005306Y036129D01*
X005314Y036072D01*
X005318Y036016D01*
X005318Y035958D01*
X005314Y035902D01*
X005306Y035845D01*
X005294Y035789D01*
X005278Y035734D01*
X005259Y035680D01*
X005236Y035628D01*
X005210Y035578D01*
X005180Y035529D01*
X005146Y035483D01*
X005110Y035439D01*
X005071Y035397D01*
X005029Y035359D01*
X004984Y035323D01*
X004937Y035291D01*
X004888Y035261D01*
X004837Y035236D01*
X004784Y035214D01*
X004730Y035195D01*
X004675Y035181D01*
X004619Y035170D01*
X004562Y035163D01*
X004505Y035160D01*
X004448Y035161D01*
X004391Y035166D01*
X004335Y035175D01*
X004279Y035188D01*
X004225Y035204D01*
X004171Y035224D01*
X004119Y035248D01*
X004069Y035276D01*
X004021Y035306D01*
X003975Y035340D01*
X003932Y035378D01*
X003891Y035418D01*
X003853Y035460D01*
X003819Y035506D01*
X003787Y035553D01*
X003759Y035603D01*
X003734Y035654D01*
X003713Y035707D01*
X003695Y035761D01*
X003682Y035817D01*
X003672Y035873D01*
X003666Y035930D01*
X003664Y035987D01*
X003507Y035397D02*
X003507Y035003D01*
X003901Y035003D01*
X003377Y034832D02*
X003379Y034846D01*
X003385Y034860D01*
X003393Y034872D01*
X003405Y034880D01*
X003419Y034886D01*
X003433Y034888D01*
X003447Y034886D01*
X003461Y034880D01*
X003473Y034872D01*
X003481Y034860D01*
X003487Y034846D01*
X003489Y034832D01*
X003487Y034818D01*
X003481Y034804D01*
X003473Y034792D01*
X003461Y034784D01*
X003447Y034778D01*
X003433Y034776D01*
X003419Y034778D01*
X003405Y034784D01*
X003393Y034792D01*
X003385Y034804D01*
X003379Y034818D01*
X003377Y034832D01*
D14*
X005653Y034835D02*
X006113Y034835D01*
X006113Y035142D01*
X006113Y035296D02*
X006113Y035602D01*
X006113Y035756D02*
X006113Y035986D01*
X006036Y036063D01*
X005729Y036063D01*
X005653Y035986D01*
X005653Y035756D01*
X006113Y035756D01*
X005883Y035449D02*
X005883Y035296D01*
X005653Y035296D02*
X006113Y035296D01*
X005653Y035296D02*
X005653Y035602D01*
X005729Y036216D02*
X005806Y036216D01*
X005883Y036293D01*
X005883Y036446D01*
X005960Y036523D01*
X006036Y036523D01*
X006113Y036446D01*
X006113Y036293D01*
X006036Y036216D01*
X005960Y036216D01*
X005883Y036293D01*
X005883Y036446D02*
X005806Y036523D01*
X005729Y036523D01*
X005653Y036446D01*
X005653Y036293D01*
X005729Y036216D01*
X005729Y030618D02*
X005653Y030541D01*
X005653Y030387D01*
X005729Y030311D01*
X005806Y030311D01*
X005883Y030387D01*
X005883Y030618D01*
X006036Y030618D02*
X005729Y030618D01*
X005729Y030157D02*
X005653Y030081D01*
X005653Y029850D01*
X006113Y029850D01*
X006113Y030081D01*
X006036Y030157D01*
X005729Y030157D01*
X005653Y029697D02*
X005653Y029390D01*
X006113Y029390D01*
X006113Y029697D01*
X005883Y029543D02*
X005883Y029390D01*
X006113Y029237D02*
X006113Y028930D01*
X005653Y028930D01*
X006036Y030311D02*
X006113Y030387D01*
X006113Y030541D01*
X006036Y030618D01*
X006036Y024712D02*
X005729Y024712D01*
X006036Y024405D01*
X006113Y024482D01*
X006113Y024635D01*
X006036Y024712D01*
X006036Y024405D02*
X005729Y024405D01*
X005653Y024482D01*
X005653Y024635D01*
X005729Y024712D01*
X006113Y024252D02*
X006113Y023945D01*
X006113Y024098D02*
X005653Y024098D01*
X005806Y023945D01*
X005729Y023791D02*
X005653Y023715D01*
X005653Y023484D01*
X006113Y023484D01*
X006113Y023715D01*
X006036Y023791D01*
X005729Y023791D01*
X005653Y023331D02*
X005653Y023024D01*
X006113Y023024D01*
X006113Y023331D01*
X005883Y023178D02*
X005883Y023024D01*
X006113Y022871D02*
X006113Y022564D01*
X005653Y022564D01*
X002946Y017341D02*
X003253Y017034D01*
X003330Y017034D01*
X003253Y016881D02*
X002946Y016881D01*
X002869Y016804D01*
X002869Y016574D01*
X003330Y016574D01*
X003330Y016804D01*
X003253Y016881D01*
X003330Y016420D02*
X003330Y016113D01*
X002869Y016113D01*
X002869Y016420D01*
X003099Y016267D02*
X003099Y016113D01*
X002869Y015653D02*
X003330Y015653D01*
X003330Y015960D01*
X002869Y017034D02*
X002869Y017341D01*
X002946Y017341D01*
X002869Y011436D02*
X002946Y011282D01*
X003099Y011129D01*
X003099Y011359D01*
X003176Y011436D01*
X003253Y011436D01*
X003330Y011359D01*
X003330Y011205D01*
X003253Y011129D01*
X003099Y011129D01*
X002946Y010975D02*
X002869Y010898D01*
X002869Y010668D01*
X003330Y010668D01*
X003330Y010898D01*
X003253Y010975D01*
X002946Y010975D01*
X002869Y010515D02*
X002869Y010208D01*
X003330Y010208D01*
X003330Y010515D01*
X003330Y010054D02*
X003330Y009748D01*
X002869Y009748D01*
X003099Y010208D02*
X003099Y010361D01*
X003099Y005530D02*
X003253Y005530D01*
X003330Y005453D01*
X003330Y005300D01*
X003253Y005223D01*
X003253Y005070D02*
X002946Y005070D01*
X002869Y004993D01*
X002869Y004763D01*
X003330Y004763D01*
X003330Y004993D01*
X003253Y005070D01*
X003099Y005223D02*
X003023Y005377D01*
X003023Y005453D01*
X003099Y005530D01*
X002869Y005530D02*
X002869Y005223D01*
X003099Y005223D01*
X002869Y004609D02*
X002869Y004302D01*
X003330Y004302D01*
X003330Y004609D01*
X003330Y004149D02*
X003330Y003842D01*
X002869Y003842D01*
X003099Y004302D02*
X003099Y004456D01*
X008775Y009748D02*
X009235Y009748D01*
X009235Y010054D01*
X009235Y010208D02*
X009235Y010515D01*
X009235Y010668D02*
X009235Y010898D01*
X009158Y010975D01*
X008851Y010975D01*
X008775Y010898D01*
X008775Y010668D01*
X009235Y010668D01*
X009005Y010361D02*
X009005Y010208D01*
X008775Y010208D02*
X009235Y010208D01*
X008775Y010208D02*
X008775Y010515D01*
X009005Y011129D02*
X009005Y011436D01*
X009235Y011359D02*
X008775Y011359D01*
X009005Y011129D01*
X014680Y011205D02*
X014757Y011129D01*
X014680Y011205D02*
X014680Y011359D01*
X014757Y011436D01*
X014834Y011436D01*
X015141Y011129D01*
X015141Y011436D01*
X015064Y010975D02*
X014757Y010975D01*
X014680Y010898D01*
X014680Y010668D01*
X015141Y010668D01*
X015141Y010898D01*
X015064Y010975D01*
X015141Y010515D02*
X015141Y010208D01*
X014680Y010208D01*
X014680Y010515D01*
X014910Y010361D02*
X014910Y010208D01*
X015141Y010054D02*
X015141Y009748D01*
X014680Y009748D01*
X015141Y005530D02*
X015141Y005223D01*
X015141Y005377D02*
X014680Y005377D01*
X014834Y005223D01*
X014757Y005070D02*
X014680Y004993D01*
X014680Y004763D01*
X015141Y004763D01*
X015141Y004993D01*
X015064Y005070D01*
X014757Y005070D01*
X014680Y004609D02*
X014680Y004302D01*
X015141Y004302D01*
X015141Y004609D01*
X014910Y004456D02*
X014910Y004302D01*
X015141Y004149D02*
X015141Y003842D01*
X014680Y003842D01*
X014680Y015653D02*
X015141Y015653D01*
X015141Y015960D01*
X015141Y016113D02*
X015141Y016420D01*
X015141Y016574D02*
X015141Y016804D01*
X015064Y016881D01*
X014757Y016881D01*
X014680Y016804D01*
X014680Y016574D01*
X015141Y016574D01*
X014910Y016267D02*
X014910Y016113D01*
X014680Y016113D02*
X014680Y016420D01*
X014680Y016113D02*
X015141Y016113D01*
X015064Y017034D02*
X015141Y017111D01*
X015141Y017264D01*
X015064Y017341D01*
X014987Y017341D01*
X014910Y017264D01*
X014910Y017188D01*
X014910Y017264D02*
X014834Y017341D01*
X014757Y017341D01*
X014680Y017264D01*
X014680Y017111D01*
X014757Y017034D01*
X017464Y022564D02*
X017924Y022564D01*
X017924Y022871D01*
X017924Y023024D02*
X017924Y023331D01*
X017924Y023484D02*
X017924Y023715D01*
X017847Y023791D01*
X017540Y023791D01*
X017464Y023715D01*
X017464Y023484D01*
X017924Y023484D01*
X017694Y023178D02*
X017694Y023024D01*
X017464Y023024D02*
X017924Y023024D01*
X017464Y023024D02*
X017464Y023331D01*
X017617Y023945D02*
X017464Y024098D01*
X017924Y024098D01*
X017924Y023945D02*
X017924Y024252D01*
X017694Y024405D02*
X017694Y024712D01*
X017924Y024635D02*
X017464Y024635D01*
X017694Y024405D01*
X017464Y028469D02*
X017924Y028469D01*
X017924Y028776D01*
X017924Y028930D02*
X017924Y029236D01*
X017924Y029390D02*
X017924Y029620D01*
X017847Y029697D01*
X017540Y029697D01*
X017464Y029620D01*
X017464Y029390D01*
X017924Y029390D01*
X017694Y029083D02*
X017694Y028930D01*
X017464Y028930D02*
X017924Y028930D01*
X017924Y029850D02*
X017924Y030157D01*
X017924Y030004D02*
X017464Y030004D01*
X017617Y029850D01*
X017540Y030311D02*
X017464Y030387D01*
X017464Y030541D01*
X017540Y030618D01*
X017617Y030618D01*
X017694Y030541D01*
X017771Y030618D01*
X017847Y030618D01*
X017924Y030541D01*
X017924Y030387D01*
X017847Y030311D01*
X017694Y030464D02*
X017694Y030541D01*
X017464Y029236D02*
X017464Y028930D01*
X017464Y034375D02*
X017924Y034375D01*
X017924Y034682D01*
X017924Y034835D02*
X017924Y035142D01*
X017924Y035295D02*
X017924Y035526D01*
X017847Y035602D01*
X017540Y035602D01*
X017464Y035526D01*
X017464Y035295D01*
X017924Y035295D01*
X017694Y034989D02*
X017694Y034835D01*
X017464Y034835D02*
X017924Y034835D01*
X017924Y035756D02*
X017924Y036063D01*
X017924Y036216D02*
X017617Y036523D01*
X017540Y036523D01*
X017464Y036446D01*
X017464Y036293D01*
X017540Y036216D01*
X017464Y035909D02*
X017924Y035909D01*
X017924Y036216D02*
X017924Y036523D01*
X017464Y035909D02*
X017617Y035756D01*
X017464Y035142D02*
X017464Y034835D01*
X012019Y030618D02*
X012019Y030311D01*
X012019Y030464D02*
X011558Y030464D01*
X011712Y030311D01*
X012019Y030157D02*
X012019Y029850D01*
X012019Y030004D02*
X011558Y030004D01*
X011712Y029850D01*
X011635Y029697D02*
X011558Y029620D01*
X011558Y029390D01*
X012019Y029390D01*
X012019Y029620D01*
X011942Y029697D01*
X011635Y029697D01*
X011558Y029236D02*
X011558Y028930D01*
X012019Y028930D01*
X012019Y029236D01*
X011788Y029083D02*
X011788Y028930D01*
X012019Y028776D02*
X012019Y028469D01*
X011558Y028469D01*
D15*
X018353Y020722D02*
X018273Y020642D01*
X018273Y020482D01*
X018353Y020402D01*
X018273Y020206D02*
X018753Y019886D01*
X018753Y020206D02*
X018273Y019886D01*
X018753Y020402D02*
X018433Y020722D01*
X018353Y020722D01*
X018753Y020722D02*
X018753Y020402D01*
X018952Y023239D02*
X018952Y017239D01*
X019952Y017239D01*
X019952Y023239D01*
X018952Y023239D01*
X002612Y020722D02*
X002612Y020402D01*
X002612Y020562D02*
X002131Y020562D01*
X002291Y020402D01*
X002131Y020206D02*
X002612Y019886D01*
X002612Y020206D02*
X002131Y019886D01*
X001842Y017239D02*
X000842Y017239D01*
X000842Y023239D01*
X001842Y023239D01*
X001842Y017239D01*
M02*
