G75*
G70*
%OFA0B0*%
%FSLAX24Y24*%
%IPPOS*%
%LPD*%
%AMOC8*
5,1,8,0,0,1.08239X$1,22.5*
%
%ADD10C,0.0000*%
D10*
X000554Y000554D02*
X000554Y039924D01*
X020239Y039924D01*
X020239Y000554D01*
X000554Y000554D01*
X001105Y001735D02*
X001107Y001785D01*
X001113Y001835D01*
X001123Y001884D01*
X001137Y001932D01*
X001154Y001979D01*
X001175Y002024D01*
X001200Y002068D01*
X001228Y002109D01*
X001260Y002148D01*
X001294Y002185D01*
X001331Y002219D01*
X001371Y002249D01*
X001413Y002276D01*
X001457Y002300D01*
X001503Y002321D01*
X001550Y002337D01*
X001598Y002350D01*
X001648Y002359D01*
X001697Y002364D01*
X001748Y002365D01*
X001798Y002362D01*
X001847Y002355D01*
X001896Y002344D01*
X001944Y002329D01*
X001990Y002311D01*
X002035Y002289D01*
X002078Y002263D01*
X002119Y002234D01*
X002158Y002202D01*
X002194Y002167D01*
X002226Y002129D01*
X002256Y002089D01*
X002283Y002046D01*
X002306Y002002D01*
X002325Y001956D01*
X002341Y001908D01*
X002353Y001859D01*
X002361Y001810D01*
X002365Y001760D01*
X002365Y001710D01*
X002361Y001660D01*
X002353Y001611D01*
X002341Y001562D01*
X002325Y001514D01*
X002306Y001468D01*
X002283Y001424D01*
X002256Y001381D01*
X002226Y001341D01*
X002194Y001303D01*
X002158Y001268D01*
X002119Y001236D01*
X002078Y001207D01*
X002035Y001181D01*
X001990Y001159D01*
X001944Y001141D01*
X001896Y001126D01*
X001847Y001115D01*
X001798Y001108D01*
X001748Y001105D01*
X001697Y001106D01*
X001648Y001111D01*
X001598Y001120D01*
X001550Y001133D01*
X001503Y001149D01*
X001457Y001170D01*
X001413Y001194D01*
X001371Y001221D01*
X001331Y001251D01*
X001294Y001285D01*
X001260Y001322D01*
X001228Y001361D01*
X001200Y001402D01*
X001175Y001446D01*
X001154Y001491D01*
X001137Y001538D01*
X001123Y001586D01*
X001113Y001635D01*
X001107Y001685D01*
X001105Y001735D01*
X018428Y001735D02*
X018430Y001785D01*
X018436Y001835D01*
X018446Y001884D01*
X018460Y001932D01*
X018477Y001979D01*
X018498Y002024D01*
X018523Y002068D01*
X018551Y002109D01*
X018583Y002148D01*
X018617Y002185D01*
X018654Y002219D01*
X018694Y002249D01*
X018736Y002276D01*
X018780Y002300D01*
X018826Y002321D01*
X018873Y002337D01*
X018921Y002350D01*
X018971Y002359D01*
X019020Y002364D01*
X019071Y002365D01*
X019121Y002362D01*
X019170Y002355D01*
X019219Y002344D01*
X019267Y002329D01*
X019313Y002311D01*
X019358Y002289D01*
X019401Y002263D01*
X019442Y002234D01*
X019481Y002202D01*
X019517Y002167D01*
X019549Y002129D01*
X019579Y002089D01*
X019606Y002046D01*
X019629Y002002D01*
X019648Y001956D01*
X019664Y001908D01*
X019676Y001859D01*
X019684Y001810D01*
X019688Y001760D01*
X019688Y001710D01*
X019684Y001660D01*
X019676Y001611D01*
X019664Y001562D01*
X019648Y001514D01*
X019629Y001468D01*
X019606Y001424D01*
X019579Y001381D01*
X019549Y001341D01*
X019517Y001303D01*
X019481Y001268D01*
X019442Y001236D01*
X019401Y001207D01*
X019358Y001181D01*
X019313Y001159D01*
X019267Y001141D01*
X019219Y001126D01*
X019170Y001115D01*
X019121Y001108D01*
X019071Y001105D01*
X019020Y001106D01*
X018971Y001111D01*
X018921Y001120D01*
X018873Y001133D01*
X018826Y001149D01*
X018780Y001170D01*
X018736Y001194D01*
X018694Y001221D01*
X018654Y001251D01*
X018617Y001285D01*
X018583Y001322D01*
X018551Y001361D01*
X018523Y001402D01*
X018498Y001446D01*
X018477Y001491D01*
X018460Y001538D01*
X018446Y001586D01*
X018436Y001635D01*
X018430Y001685D01*
X018428Y001735D01*
X018428Y038743D02*
X018430Y038793D01*
X018436Y038843D01*
X018446Y038892D01*
X018460Y038940D01*
X018477Y038987D01*
X018498Y039032D01*
X018523Y039076D01*
X018551Y039117D01*
X018583Y039156D01*
X018617Y039193D01*
X018654Y039227D01*
X018694Y039257D01*
X018736Y039284D01*
X018780Y039308D01*
X018826Y039329D01*
X018873Y039345D01*
X018921Y039358D01*
X018971Y039367D01*
X019020Y039372D01*
X019071Y039373D01*
X019121Y039370D01*
X019170Y039363D01*
X019219Y039352D01*
X019267Y039337D01*
X019313Y039319D01*
X019358Y039297D01*
X019401Y039271D01*
X019442Y039242D01*
X019481Y039210D01*
X019517Y039175D01*
X019549Y039137D01*
X019579Y039097D01*
X019606Y039054D01*
X019629Y039010D01*
X019648Y038964D01*
X019664Y038916D01*
X019676Y038867D01*
X019684Y038818D01*
X019688Y038768D01*
X019688Y038718D01*
X019684Y038668D01*
X019676Y038619D01*
X019664Y038570D01*
X019648Y038522D01*
X019629Y038476D01*
X019606Y038432D01*
X019579Y038389D01*
X019549Y038349D01*
X019517Y038311D01*
X019481Y038276D01*
X019442Y038244D01*
X019401Y038215D01*
X019358Y038189D01*
X019313Y038167D01*
X019267Y038149D01*
X019219Y038134D01*
X019170Y038123D01*
X019121Y038116D01*
X019071Y038113D01*
X019020Y038114D01*
X018971Y038119D01*
X018921Y038128D01*
X018873Y038141D01*
X018826Y038157D01*
X018780Y038178D01*
X018736Y038202D01*
X018694Y038229D01*
X018654Y038259D01*
X018617Y038293D01*
X018583Y038330D01*
X018551Y038369D01*
X018523Y038410D01*
X018498Y038454D01*
X018477Y038499D01*
X018460Y038546D01*
X018446Y038594D01*
X018436Y038643D01*
X018430Y038693D01*
X018428Y038743D01*
X001105Y038743D02*
X001107Y038793D01*
X001113Y038843D01*
X001123Y038892D01*
X001137Y038940D01*
X001154Y038987D01*
X001175Y039032D01*
X001200Y039076D01*
X001228Y039117D01*
X001260Y039156D01*
X001294Y039193D01*
X001331Y039227D01*
X001371Y039257D01*
X001413Y039284D01*
X001457Y039308D01*
X001503Y039329D01*
X001550Y039345D01*
X001598Y039358D01*
X001648Y039367D01*
X001697Y039372D01*
X001748Y039373D01*
X001798Y039370D01*
X001847Y039363D01*
X001896Y039352D01*
X001944Y039337D01*
X001990Y039319D01*
X002035Y039297D01*
X002078Y039271D01*
X002119Y039242D01*
X002158Y039210D01*
X002194Y039175D01*
X002226Y039137D01*
X002256Y039097D01*
X002283Y039054D01*
X002306Y039010D01*
X002325Y038964D01*
X002341Y038916D01*
X002353Y038867D01*
X002361Y038818D01*
X002365Y038768D01*
X002365Y038718D01*
X002361Y038668D01*
X002353Y038619D01*
X002341Y038570D01*
X002325Y038522D01*
X002306Y038476D01*
X002283Y038432D01*
X002256Y038389D01*
X002226Y038349D01*
X002194Y038311D01*
X002158Y038276D01*
X002119Y038244D01*
X002078Y038215D01*
X002035Y038189D01*
X001990Y038167D01*
X001944Y038149D01*
X001896Y038134D01*
X001847Y038123D01*
X001798Y038116D01*
X001748Y038113D01*
X001697Y038114D01*
X001648Y038119D01*
X001598Y038128D01*
X001550Y038141D01*
X001503Y038157D01*
X001457Y038178D01*
X001413Y038202D01*
X001371Y038229D01*
X001331Y038259D01*
X001294Y038293D01*
X001260Y038330D01*
X001228Y038369D01*
X001200Y038410D01*
X001175Y038454D01*
X001154Y038499D01*
X001137Y038546D01*
X001123Y038594D01*
X001113Y038643D01*
X001107Y038693D01*
X001105Y038743D01*
M02*
